<?xml version="1.0" encoding="UTF-8" standalone="no"?>
<!-- Created with Inkscape (http://www.inkscape.org/) -->

<svg
   xmlns:dc="http://purl.org/dc/elements/1.1/"
   xmlns:cc="http://creativecommons.org/ns#"
   xmlns:rdf="http://www.w3.org/1999/02/22-rdf-syntax-ns#"
   xmlns:svg="http://www.w3.org/2000/svg"
   xmlns="http://www.w3.org/2000/svg"
   xmlns:sodipodi="http://sodipodi.sourceforge.net/DTD/sodipodi-0.dtd"
   xmlns:inkscape="http://www.inkscape.org/namespaces/inkscape"
   width="82"
   height="70"
   id="svg2"
   version="1.1"
   inkscape:version="0.48.1 "
   sodipodi:docname="aggregate.svg"
   inkscape:export-filename="C:\Users\Work\workspace\Scampi\src\Scampi\gui\ScaiOperators\src\main\webapp\images\operators\aggregate.png"
   inkscape:export-xdpi="90"
   inkscape:export-ydpi="90">
  <defs
     id="defs4" />
  <sodipodi:namedview
     id="base"
     pagecolor="#ffffff"
     bordercolor="#666666"
     borderopacity="1.0"
     inkscape:pageopacity="0.0"
     inkscape:pageshadow="2"
     inkscape:zoom="5.3185439"
     inkscape:cx="8.360988"
     inkscape:cy="53.561213"
     inkscape:document-units="px"
     inkscape:current-layer="layer1"
     showgrid="false"
     inkscape:window-width="1920"
     inkscape:window-height="1018"
     inkscape:window-x="1358"
     inkscape:window-y="-8"
     inkscape:window-maximized="1" />
  <metadata
     id="metadata7">
    <rdf:RDF>
      <cc:Work
         rdf:about="">
        <dc:format>image/svg+xml</dc:format>
        <dc:type
           rdf:resource="http://purl.org/dc/dcmitype/StillImage" />
        <dc:title />
      </cc:Work>
    </rdf:RDF>
  </metadata>
  <g
     inkscape:label="Ebene 1"
     inkscape:groupmode="layer"
     id="layer1"
     transform="translate(0,-982.36218)">
    <rect
       style="fill:#008000;stroke:#000000;stroke-width:0;stroke-miterlimit:4;stroke-opacity:1;stroke-dasharray:none"
       id="rect3828-37-9"
       width="40.424595"
       height="21.622459"
       x="13.355615"
       y="987.22345"
       ry="0" />
    <rect
       style="fill:#ffffff;fill-opacity:1;stroke:#000000;stroke-width:1;stroke-miterlimit:4;stroke-opacity:1;stroke-dasharray:none"
       id="rect3001-8-7"
       width="15.417755"
       height="13.72556"
       x="17.184278"
       y="990.98383"
       ry="3.7604272" />
    <rect
       style="fill:#800000;stroke:#000000;stroke-width:0;stroke-miterlimit:4;stroke-opacity:1;stroke-dasharray:none"
       id="rect3828-37-1"
       width="40.424595"
       height="21.622459"
       x="13.254012"
       y="1009.7754"
       ry="0" />
    <rect
       style="fill:#ffffff;fill-opacity:1;stroke:#000000;stroke-width:1;stroke-miterlimit:4;stroke-opacity:1;stroke-dasharray:none"
       id="rect3001-8-1"
       width="15.417755"
       height="13.72556"
       x="17.082674"
       y="1013.5357"
       ry="3.7604272" />
    <rect
       style="fill:#000000;fill-opacity:1;stroke:#000000;stroke-width:0;stroke-miterlimit:4;stroke-opacity:1;stroke-dasharray:none"
       id="rect4200"
       width="12.785454"
       height="14.665668"
       x="41.176685"
       y="1032.7731" />
    <text
       xml:space="preserve"
       style="font-size:19.25797081px;font-style:normal;font-weight:normal;line-height:125%;letter-spacing:0px;word-spacing:0px;fill:#000000;fill-opacity:1;stroke:none;font-family:Sans"
       x="64.678223"
       y="1030.8657"
       id="text4202"
       sodipodi:linespacing="125%"
       transform="scale(0.98624785,1.0139439)"><tspan
         sodipodi:role="line"
         id="tspan4204"
         x="64.678223"
         y="1030.8657">x</tspan></text>
    <path
       style="fill:#000000;fill-opacity:1;stroke:#0e0000;stroke-width:1;stroke-miterlimit:4;stroke-opacity:1;stroke-dasharray:none"
       id="path2992"
       d="m 43.188398,998.89487 c 0.113004,1.04645 0.244523,2.09073 0.361351,3.13673 0.07917,0.9097 0.254275,1.8068 0.380913,2.7102 0.143933,1.1297 0.389844,2.242 0.551757,3.3689 0.111482,0.7882 0.167309,1.5825 0.186409,2.3779 0.0072,0.6397 0.0047,1.2795 0.0066,1.9192 0.0014,0.4364 0.0022,0.8727 0.0025,1.3091 -0.003,0.3672 0.02046,0.7344 -0.03942,1.098 -0.05258,0.3411 -0.159165,0.6693 -0.236499,1.0047 -0.03898,0.339 -0.123901,0.6675 -0.198277,0.9996 -0.04984,0.3669 -0.08596,0.7244 -0.206588,1.0765 -0.145254,0.3472 -0.188922,0.7186 -0.2496,1.086 -0.07758,0.3295 -0.13556,0.6593 -0.287044,0.9642 -0.207184,0.3453 -0.30334,0.7358 -0.455393,1.1043 -0.147209,0.2939 -0.33122,0.5696 -0.517594,0.84 -0.252001,0.3418 -0.517241,0.6755 -0.7756,1.0133 -0.319153,0.4671 -0.759884,0.8233 -1.131461,1.2423 -0.353586,0.4917 -0.772414,0.9259 -1.187189,1.3647 -0.425387,0.5058 -0.827245,1.0278 -1.26181,1.5268 -0.303509,0.3474 -0.608307,0.6907 -0.939495,1.0117 -0.291346,0.281 -0.593708,0.5362 -0.824734,0.8714 -0.240619,0.4391 -0.485622,0.8727 -0.689368,1.3304 -0.193755,0.451 -0.332757,0.9224 -0.540209,1.3676 -0.236775,0.4031 -0.329196,0.8595 -0.436358,1.3083 -0.157415,0.7141 -0.166828,1.4503 -0.182529,2.1782 -0.008,0.6351 -0.07086,1.1813 0.562435,1.4979 0.54432,0.2351 1.103281,0.4201 1.645939,0.6622 0.676514,0.2912 1.314755,0.6563 1.968445,0.9915 0.745398,0.4239 1.516062,0.7943 2.325122,1.0783 0.727285,0.2407 1.459148,0.4668 2.174496,0.742 0.581329,0.2365 1.186973,0.3956 1.780711,0.5952 0.529077,0.1711 1.044154,0.3713 1.592732,0.472 0.412443,0.063 0.830725,0.06 1.246783,0.062 0.413183,0 0.819127,0.103 1.230585,0.145 0.364623,0.058 0.682697,0.2438 1.036864,0.3363 0.373545,0.077 0.757092,0.074 1.136671,0.08 0.482951,0 0.965927,0 1.448884,2e-4 0.443729,-0 0.887451,-0 1.331181,-10e-4 0.549782,0 1.099557,0 1.64934,4e-4 0.462592,-0.1437 0.931665,-0.2591 1.411173,-0.3276 0.521026,-0.054 1.045222,-0.047 1.568219,-0.049 0.52617,-0.033 1.035014,-0.1601 1.549617,-0.2624 0.425247,-0.083 0.857985,-0.1057 1.290082,-0.1129 0.406721,-0.061 0.779524,-0.2193 1.183728,-0.2949 0.344853,-0.055 0.678589,-0.1552 1.024334,-0.2108 0,0 -2.22979,1.6824 -2.22979,1.6824 l 0,0 c -0.339759,0.07 -0.675303,0.1579 -1.017207,0.2173 -0.401648,0.1005 -0.793276,0.253 -1.213841,0.2539 -0.422667,0.02 -0.844738,0.057 -1.25894,0.1479 -0.519923,0.1074 -1.042438,0.2079 -1.57558,0.215 -0.51791,0.01 -1.038688,0.01 -1.551526,0.09 -0.480013,0.088 -0.946662,0.246 -1.433524,0.2882 -0.550224,-0 -1.100439,-0 -1.650662,7e-4 -0.443979,0 -0.887956,0 -1.331941,0 -0.484137,3e-4 -0.968311,0 -1.452406,-0.01 -0.399178,-0.01 -0.803177,-0.018 -1.188235,-0.1365 -0.332263,-0.1117 -0.650229,-0.2702 -1.005664,-0.2981 -0.402366,-0.052 -0.802758,-0.1376 -1.210617,-0.1229 -0.427914,-0.01 -0.858398,-0.014 -1.278178,-0.1074 -0.545152,-0.1299 -1.06397,-0.3381 -1.59838,-0.5044 -0.599889,-0.1902 -1.203006,-0.3688 -1.786838,-0.606 -0.713829,-0.2634 -1.435236,-0.5049 -2.155033,-0.7511 -0.816197,-0.3055 -1.603946,-0.6757 -2.367585,-1.096 -0.638157,-0.3477 -1.275941,-0.6958 -1.946081,-0.9803 -0.559672,-0.2348 -1.148593,-0.3957 -1.685747,-0.6805 -0.665984,-0.4585 -0.708712,-0.9926 -0.681717,-1.765 0.01395,-0.7399 0.0056,-1.4871 0.133326,-2.2184 0.104961,-0.463 0.181303,-0.9453 0.405192,-1.3688 0.240534,-0.4289 0.373483,-0.9011 0.553151,-1.3569 0.07654,-0.1722 0.140992,-0.3497 0.220147,-0.5207 0.101291,-0.2188 0.247177,-0.4115 0.357407,-0.6241 0.03584,-0.069 0.06008,-0.1436 0.09013,-0.2154 0.201085,-0.3719 0.456218,-0.6721 0.797531,-0.9249 0.306756,-0.3458 0.669273,-0.6416 0.960388,-1.0042 0.216325,-0.2564 0.457139,-0.4932 0.666399,-0.7552 0.194588,-0.2436 0.191546,-0.284 0.379013,-0.5286 0.06708,-0.088 0.140627,-0.17 0.21094,-0.2549 0.410468,-0.4373 0.844297,-0.8522 1.19534,-1.3415 0.335487,-0.4781 0.791369,-0.7571 1.127914,-1.2384 0.257241,-0.3273 0.48468,-0.6805 0.770215,-0.9834 0.166922,-0.2809 0.368912,-0.5366 0.537512,-0.8157 0.207481,-0.3481 0.241448,-0.7568 0.447549,-1.1075 0.05001,-0.091 0.115155,-0.1728 0.159768,-0.2662 0.09438,-0.1976 0.07464,-0.4303 0.159106,-0.6319 0.106849,-0.3648 0.0806,-0.7637 0.237993,-1.1187 0.134269,-0.359 0.210179,-0.6491 0.220212,-1.0375 0.05974,-0.3377 0.182378,-0.6579 0.199758,-1.0027 0.06295,-0.3391 0.17885,-0.6613 0.234607,-1.0013 0.08238,-0.3477 0.07601,-0.6939 0.06804,-1.0511 0.001,-0.4383 0.0032,-0.8765 0.0074,-1.3148 0.0054,-0.6387 0.0096,-1.2775 0.0017,-1.9163 -0.01271,-0.7894 -0.04328,-1.5793 -0.143809,-2.3633 -0.15174,-1.1273 -0.390882,-2.2384 -0.564119,-3.3623 -0.125547,-0.9082 -0.310971,-1.8088 -0.369735,-2.7255 -0.109602,-1.0403 -0.233017,-2.0811 -0.405587,-3.1127 0,0 2.474275,-1.29542 2.474275,-1.29542 z"
       inkscape:connector-curvature="0" />
    <rect
       style="fill:#ffffff;fill-opacity:1;stroke:#000000;stroke-width:1;stroke-miterlimit:4;stroke-opacity:1;stroke-dasharray:none"
       id="rect3001-0-6-4"
       width="15.417755"
       height="13.72556"
       x="34.568657"
       y="1013.8177"
       ry="3.7604272" />
    <rect
       style="fill:#ffffff;fill-opacity:1;stroke:#000000;stroke-width:1;stroke-miterlimit:4;stroke-opacity:1;stroke-dasharray:none"
       id="rect3001-0-6-3"
       width="15.417755"
       height="13.72556"
       x="34.670265"
       y="991.26587"
       ry="3.7604272" />
  </g>
</svg>
