<?xml version="1.0" encoding="UTF-8" standalone="no"?>
<!-- Created with Inkscape (http://www.inkscape.org/) -->

<svg
   xmlns:dc="http://purl.org/dc/elements/1.1/"
   xmlns:cc="http://creativecommons.org/ns#"
   xmlns:rdf="http://www.w3.org/1999/02/22-rdf-syntax-ns#"
   xmlns:svg="http://www.w3.org/2000/svg"
   xmlns="http://www.w3.org/2000/svg"
   xmlns:sodipodi="http://sodipodi.sourceforge.net/DTD/sodipodi-0.dtd"
   xmlns:inkscape="http://www.inkscape.org/namespaces/inkscape"
   width="82"
   height="70"
   id="svg2"
   version="1.1"
   inkscape:version="0.48.1 "
   sodipodi:docname="difference.svg"
   inkscape:export-filename="C:\Users\Work\workspace\Scampi\src\Scampi\gui\ScaiOperators\src\main\webapp\images\operators\difference.png"
   inkscape:export-xdpi="90"
   inkscape:export-ydpi="90">
  <defs
     id="defs4" />
  <sodipodi:namedview
     id="base"
     pagecolor="#ffffff"
     bordercolor="#666666"
     borderopacity="1.0"
     inkscape:pageopacity="0.0"
     inkscape:pageshadow="2"
     inkscape:zoom="5.3185439"
     inkscape:cx="8.360988"
     inkscape:cy="53.561213"
     inkscape:document-units="px"
     inkscape:current-layer="layer1"
     showgrid="false"
     inkscape:window-width="1920"
     inkscape:window-height="1018"
     inkscape:window-x="1358"
     inkscape:window-y="-8"
     inkscape:window-maximized="1" />
  <metadata
     id="metadata7">
    <rdf:RDF>
      <cc:Work
         rdf:about="">
        <dc:format>image/svg+xml</dc:format>
        <dc:type
           rdf:resource="http://purl.org/dc/dcmitype/StillImage" />
        <dc:title />
      </cc:Work>
    </rdf:RDF>
  </metadata>
  <g
     inkscape:label="Ebene 1"
     inkscape:groupmode="layer"
     id="layer1"
     transform="translate(0,-982.36218)">
    <rect
       style="fill:#800000;stroke:#000000;stroke-width:0;stroke-miterlimit:4;stroke-opacity:1;stroke-dasharray:none"
       id="rect3828-37"
       width="27.988268"
       height="14.970469"
       x="7.4435296"
       y="991.51611"
       ry="0" />
    <rect
       style="fill:#008000;stroke:#000000;stroke-width:0;stroke-miterlimit:4;stroke-opacity:1;stroke-dasharray:none"
       id="rect3828-37-9"
       width="27.988268"
       height="14.970469"
       x="47.065922"
       y="991.72815"
       ry="0" />
    <text
       xml:space="preserve"
       style="font-size:21.63334846px;font-style:normal;font-weight:normal;line-height:125%;letter-spacing:0px;word-spacing:0px;fill:#000000;fill-opacity:1;stroke:none;font-family:Sans"
       x="35.853722"
       y="994.49072"
       id="text4053"
       sodipodi:linespacing="125%"
       transform="scale(0.98734988,1.0128122)"><tspan
         sodipodi:role="line"
         id="tspan4055"
         x="35.853722"
         y="994.49072">=</tspan></text>
    <rect
       style="fill:#800000;stroke:#000000;stroke-width:0;stroke-miterlimit:4;stroke-opacity:1;stroke-dasharray:none"
       id="rect3828-37-1"
       width="27.988268"
       height="14.970469"
       x="27.739746"
       y="1028.1694"
       ry="0" />
    <rect
       style="fill:#ffffff;fill-opacity:1;stroke:#000000;stroke-width:0.69235736;stroke-miterlimit:4;stroke-opacity:1;stroke-dasharray:none"
       id="rect3001-0-6-4"
       width="10.674597"
       height="9.5029926"
       x="42.497101"
       y="1030.9684"
       ry="2.6035595" />
    <rect
       style="fill:#ffffff;fill-opacity:1;stroke:#000000;stroke-width:0.69235736;stroke-miterlimit:4;stroke-opacity:1;stroke-dasharray:none"
       id="rect3001-8-1"
       width="10.674597"
       height="9.5029926"
       x="30.390549"
       y="1030.7731"
       ry="2.6035595" />
    <rect
       style="fill:#000000;fill-opacity:1;stroke:#000000;stroke-width:0;stroke-miterlimit:4;stroke-opacity:1;stroke-dasharray:none"
       id="rect4103"
       width="2.0828481"
       height="11.585842"
       x="40.952812"
       y="994.30652" />
    <rect
       style="fill:#008000;stroke:#000000;stroke-width:0;stroke-miterlimit:4;stroke-opacity:1;stroke-dasharray:none"
       id="rect3828-37-9-0"
       width="27.988268"
       height="14.970469"
       x="28.000107"
       y="1011.7672"
       ry="0" />
    <rect
       style="fill:#ffffff;fill-opacity:1;stroke:#000000;stroke-width:0.69235736;stroke-miterlimit:4;stroke-opacity:1;stroke-dasharray:none"
       id="rect3001-0-6-3-5"
       width="10.674597"
       height="9.5029926"
       x="42.757462"
       y="1014.5658"
       ry="2.6035595" />
    <rect
       style="fill:#ffffff;fill-opacity:1;stroke:#000000;stroke-width:0.69235736;stroke-miterlimit:4;stroke-opacity:1;stroke-dasharray:none"
       id="rect3001-8-7-8"
       width="10.674597"
       height="9.5029926"
       x="30.650906"
       y="1014.3707"
       ry="2.6035595" />
    <path
       style="fill:#800000;fill-opacity:1;stroke:#000000;stroke-width:0;stroke-miterlimit:4;stroke-opacity:1;stroke-dasharray:none"
       id="path4129"
       d="m 21.766979,997.25402 c -0.0097,0.34111 -0.0079,0.68243 -0.0063,1.02361 0.01802,0.31988 -0.01622,0.63538 -0.101898,0.94589 -0.09401,0.26595 -0.127323,0.54045 -0.146095,0.81718 -0.03858,0.4345 -0.200388,0.8486 -0.291175,1.2754 -0.08668,0.4631 -0.15238,0.9288 -0.238663,1.3919 -0.08647,0.392 -0.09966,0.7916 -0.140607,1.1883 -0.0706,0.484 -0.09986,0.9712 -0.115162,1.4588 -0.03626,0.393 -0.0679,0.7875 -0.124112,1.1787 -0.08046,0.3686 -0.113234,0.742 -0.13261,1.1164 -0.0024,0.4871 -0.03214,0.9718 -0.07628,1.4571 -0.04628,0.634 -0.151928,1.263 -0.227245,1.8945 -0.03845,0.5564 -0.11109,1.1098 -0.172448,1.6644 -0.05626,0.5148 -0.06274,1.0323 -0.06737,1.549 -0.0037,0.558 0.01378,1.1156 -0.02958,1.6725 -0.05546,0.5205 -0.07369,1.0429 -0.08968,1.5652 -0.0089,0.5266 -0.01032,1.0532 -0.0066,1.5799 0.02181,0.4629 -0.009,0.9231 -0.07229,1.3825 -0.108684,0.696 -0.154259,1.3978 -0.181065,2.0996 -0.0423,0.7837 -0.0109,1.5658 0.03864,2.3483 0.04291,0.6153 0.06405,1.2311 0.0762,1.8473 0.0057,0.5159 0.009,1.0318 0.01079,1.5476 0.0036,0.3802 0.0021,0.7603 0.0047,1.1404 -0.01388,0.3924 0.103073,0.7748 0.172529,1.1599 0.09416,0.4336 0.141703,0.8731 0.209579,1.31 0.05389,0.2729 0.171451,0.5271 0.280379,0.7845 0.09996,0.2237 0.250427,0.4246 0.390798,0.6291 0.120141,0.2441 0.270323,0.473 0.423251,0.7019 0.173969,0.2597 0.392426,0.4917 0.641444,0.6968 0.18268,0.2192 0.393603,0.4166 0.591049,0.6252 0.222061,0.2747 0.529227,0.469 0.812045,0.6884 0.29291,0.1764 0.524969,0.4174 0.807979,0.6074 0.241088,0.1965 0.524426,0.3384 0.82782,0.4432 0.360268,0.085 0.719857,0.1711 1.077133,0.2662 0.383518,0.1 0.777979,0.1541 1.175762,0.18 0.275508,0.014 0.551581,0.012 0.827398,0.01 0.259306,0 0.518614,0 0.777922,0 0.212415,-0.017 0.458083,-0.04 0.65416,-0.1203 -0.528976,0.2641 -1.057953,0.5283 -1.586929,0.7924 0,0 1.806102,-0.6201 1.806102,-0.6201 l 0,0 c -0.582873,0.2934 -1.165746,0.5867 -1.748619,0.88 -0.226972,0.039 -0.452762,0.09 -0.68622,0.076 -0.259317,5e-4 -0.518632,0 -0.777949,0 -0.278026,-6e-4 -0.556529,0 -0.833488,-0.026 -0.402024,-0.04 -0.798561,-0.1107 -1.186961,-0.2121 -0.366477,-0.09 -0.739041,-0.1647 -1.097407,-0.2779 -0.310744,-0.1235 -0.605784,-0.2731 -0.855168,-0.4818 -0.277678,-0.1993 -0.523405,-0.4316 -0.816328,-0.6139 -0.288923,-0.2247 -0.586028,-0.4405 -0.824841,-0.7107 -0.196481,-0.2023 -0.403985,-0.3957 -0.585382,-0.6091 -0.249966,-0.2239 -0.478379,-0.4662 -0.663209,-0.7363 -0.157704,-0.2263 -0.309897,-0.4544 -0.42644,-0.6997 -0.146992,-0.2142 -0.30581,-0.4235 -0.41279,-0.657 -0.107883,-0.2707 -0.226653,-0.5371 -0.28805,-0.8209 -0.07373,-0.4358 -0.08681,-0.8796 -0.192783,-1.3118 -0.08541,-0.3894 -0.206997,-0.7804 -0.203851,-1.179 0.0029,-0.3818 0.002,-0.7635 0.0062,-1.1452 0.0021,-0.5166 0.0058,-1.0332 -2.98e-4,-1.5498 -0.0066,-0.6159 -0.02384,-1.2319 -0.06025,-1.8471 -0.04595,-0.7877 -0.07186,-1.5752 -0.03796,-2.364 0.01891,-0.7032 0.05282,-1.4053 0.152326,-2.1038 0.05952,-0.4528 0.08853,-0.9053 0.0753,-1.3614 0.004,-0.5286 0.0024,-1.0574 0.01201,-1.5859 0.0071,-0.5243 0.02947,-1.0485 0.07811,-1.5711 0.05479,-0.5549 0.0486,-1.1099 0.04671,-1.6667 0.003,-0.5189 -0.0085,-1.0394 0.04309,-1.5567 0.06983,-0.5583 0.16281,-1.1142 0.199136,-1.6756 0.06933,-0.6277 0.165228,-1.2528 0.21124,-1.8824 0.03808,-0.4828 0.08314,-0.9638 0.07183,-1.4484 0.01394,-0.3781 0.02927,-0.7576 0.113973,-1.1295 0.07781,-0.3847 0.09,-0.7794 0.148465,-1.1667 0.01941,-0.4892 0.03546,-0.9795 0.101967,-1.4659 0.04903,-0.3997 0.0468,-0.8046 0.136726,-1.2006 0.09615,-0.4627 0.160178,-0.9292 0.240981,-1.3942 0.08417,-0.4203 0.22828,-0.8273 0.291037,-1.2498 0.01078,-0.2861 0.02265,-0.5734 0.123362,-0.84811 0.09713,-0.29753 0.151928,-0.59652 0.129063,-0.90812 0.0016,-0.33928 0.0035,-0.67871 -0.0063,-1.01792 0,0 1.723157,-0.77959 1.723157,-0.77959 z"
       inkscape:connector-curvature="0" />
    <path
       style="fill:#008000;fill-opacity:1;stroke:#000000;stroke-width:0;stroke-miterlimit:4;stroke-opacity:1;stroke-dasharray:none"
       id="path4131"
       d="m 64.344356,997.24189 c 0.0981,0.40442 0.177801,0.81123 0.261188,1.21751 0.161581,0.56358 0.317126,1.12822 0.478362,1.6919 0.15771,0.5461 0.329031,1.0893 0.506801,1.6318 0.186026,0.5278 0.231305,1.0741 0.268944,1.6172 0.0076,0.51 0.05387,1.0184 0.101596,1.5269 0.04012,0.3854 0.159535,0.7617 0.233689,1.1433 0.08527,0.3841 0.155587,0.7689 0.184533,1.1578 0.06438,0.4497 0.0864,0.9022 0.144286,1.3522 0.06494,0.6274 0.119401,1.2558 0.167173,1.8842 0.048,0.7068 0.07752,1.4143 0.09212,2.122 0.0105,0.5235 0.01004,1.0471 0.0097,1.5707 0.0087,0.5083 -0.123917,1.0041 -0.237356,1.5019 -0.131019,0.3996 -0.260386,0.8005 -0.414951,1.1954 -0.127798,0.3441 -0.324303,0.6722 -0.567692,0.9777 -0.17588,0.2182 -0.430493,0.3841 -0.67841,0.5529 -0.73962,0.4337 -1.533137,0.888 -2.457877,1.0377 -0.290917,0.04 -0.587124,0.043 -0.881793,0.044 -0.271356,-0.012 -0.519407,0.078 -0.775539,0.1308 -0.315444,0.048 -0.637492,0.055 -0.958087,0.062 -0.305576,-0.011 -0.60224,0.044 -0.904395,0.069 -0.381878,0.021 -0.764676,0.026 -1.147366,0.03 -0.302846,0 -0.605716,0 -0.908577,0 -0.279557,0.011 -0.537279,-0.078 -0.800824,-0.1337 -0.221341,-0.058 -0.46048,-0.094 -0.67573,-0.1648 -0.198424,-0.068 -0.414779,-0.082 -0.629137,-0.091 -0.162676,-0.01 -0.08081,0 -0.245605,-0.01 0,0 1.56601,-0.8573 1.56601,-0.8573 l 0,0 c 0.168884,0.01 0.08481,0 0.252233,0.011 0.22779,0.019 0.450945,0.052 0.661525,0.1234 0.221269,0.053 0.439206,0.1123 0.663236,0.1577 0.251769,0.058 0.502016,0.1157 0.769279,0.1 0.300141,6e-4 0.600293,0 0.900426,0 0.379906,-0.01 0.760796,-0.01 1.138401,-0.044 0.303745,-0.031 0.605654,-0.067 0.913602,-0.058 0.313958,-0.01 0.630548,-0.024 0.933677,-0.092 0.2634,-0.06 0.527254,-0.1131 0.805811,-0.1 0.285573,-0.01 0.573488,-0.014 0.850631,-0.072 0.638231,-0.1583 1.483966,-0.6113 -1.237605,0.586 -0.323162,0.1422 0.707811,-0.2773 0.38585,-0.1823 0.243237,-0.167 0.510843,-0.3198 0.703745,-0.5231 0.278279,-0.2752 0.461285,-0.6105 0.591824,-0.9411 0.18266,-0.3854 0.279024,-0.7914 0.442891,-1.1816 0.106084,-0.4917 0.261554,-0.9788 0.252576,-1.4809 5.65e-4,-0.5244 0.0024,-1.0487 0.0014,-1.5731 -0.0055,-0.7075 -0.01431,-1.4154 -0.07152,-2.1218 -0.05542,-0.6229 -0.119836,-1.2454 -0.196474,-1.867 -0.05824,-0.4513 -0.07337,-0.9056 -0.151639,-1.3557 -0.0306,-0.3843 -0.08502,-0.7671 -0.180847,-1.1455 -0.07045,-0.3868 -0.19202,-0.7673 -0.230817,-1.1574 -0.03678,-0.5106 -0.09579,-1.0203 -0.09585,-1.532 -0.0275,-0.5347 -0.07509,-1.0717 -0.251822,-1.5919 -0.178169,-0.5441 -0.342784,-1.0905 -0.505366,-1.6374 -0.1602,-0.5659 -0.314336,-1.1328 -0.48559,-1.69686 -0.09321,-0.40253 -0.167384,-0.80903 -0.300951,-1.20521 0,0 1.710357,-0.68461 1.710357,-0.68461 z"
       inkscape:connector-curvature="0" />
    <rect
       style="fill:#ffffff;fill-opacity:1;stroke:#000000;stroke-width:0.69235736;stroke-miterlimit:4;stroke-opacity:1;stroke-dasharray:none"
       id="rect3001-0-6"
       width="10.674597"
       height="9.5029926"
       x="22.200886"
       y="994.31488"
       ry="2.6035595" />
    <rect
       style="fill:#ffffff;fill-opacity:1;stroke:#000000;stroke-width:0.69235736;stroke-miterlimit:4;stroke-opacity:1;stroke-dasharray:none"
       id="rect3001-8"
       width="10.674597"
       height="9.5029926"
       x="10.094334"
       y="994.11963"
       ry="2.6035595" />
    <rect
       style="fill:#ffffff;fill-opacity:1;stroke:#000000;stroke-width:0.69235736;stroke-miterlimit:4;stroke-opacity:1;stroke-dasharray:none"
       id="rect3001-0-6-3"
       width="10.674597"
       height="9.5029926"
       x="61.823273"
       y="994.52698"
       ry="2.6035595" />
    <rect
       style="fill:#ffffff;fill-opacity:1;stroke:#000000;stroke-width:0.69235736;stroke-miterlimit:4;stroke-opacity:1;stroke-dasharray:none"
       id="rect3001-8-7"
       width="10.674597"
       height="9.5029926"
       x="49.716724"
       y="994.33173"
       ry="2.6035595" />
  </g>
</svg>
