<?xml version="1.0" encoding="UTF-8" standalone="no"?>
<!-- Created with Inkscape (http://www.inkscape.org/) -->

<svg
   xmlns:dc="http://purl.org/dc/elements/1.1/"
   xmlns:cc="http://creativecommons.org/ns#"
   xmlns:rdf="http://www.w3.org/1999/02/22-rdf-syntax-ns#"
   xmlns:svg="http://www.w3.org/2000/svg"
   xmlns="http://www.w3.org/2000/svg"
   xmlns:sodipodi="http://sodipodi.sourceforge.net/DTD/sodipodi-0.dtd"
   xmlns:inkscape="http://www.inkscape.org/namespaces/inkscape"
   width="82"
   height="70"
   id="svg2"
   version="1.1"
   inkscape:version="0.48.1 "
   sodipodi:docname="intersection.svg"
   inkscape:export-filename="C:\Users\Work\workspace\Scampi\src\Scampi\gui\ScaiOperators\src\main\webapp\images\operators\intersection.png"
   inkscape:export-xdpi="90"
   inkscape:export-ydpi="90">
  <defs
     id="defs4" />
  <sodipodi:namedview
     id="base"
     pagecolor="#ffffff"
     bordercolor="#666666"
     borderopacity="1.0"
     inkscape:pageopacity="0.0"
     inkscape:pageshadow="2"
     inkscape:zoom="5.3185439"
     inkscape:cx="8.360988"
     inkscape:cy="53.561213"
     inkscape:document-units="px"
     inkscape:current-layer="layer1"
     showgrid="false"
     inkscape:window-width="1920"
     inkscape:window-height="1018"
     inkscape:window-x="1358"
     inkscape:window-y="-8"
     inkscape:window-maximized="1" />
  <metadata
     id="metadata7">
    <rdf:RDF>
      <cc:Work
         rdf:about="">
        <dc:format>image/svg+xml</dc:format>
        <dc:type
           rdf:resource="http://purl.org/dc/dcmitype/StillImage" />
        <dc:title />
      </cc:Work>
    </rdf:RDF>
  </metadata>
  <g
     inkscape:label="Ebene 1"
     inkscape:groupmode="layer"
     id="layer1"
     transform="translate(0,-982.36218)">
    <path
       style="fill:#800000;fill-opacity:1;stroke:#000000;stroke-width:0;stroke-miterlimit:4;stroke-opacity:1;stroke-dasharray:none"
       id="path4099"
       d="m 23.596423,1009.1806 c 0.571608,0.2069 1.149042,0.3912 1.729954,0.5697 0.562903,0.1957 1.094412,0.4621 1.613828,0.7516 0.540083,0.2657 1.06081,0.5609 1.568631,0.8833 0.367797,0.1823 0.664945,0.4731 1.015598,0.6812 0.235549,0.1766 0.491599,0.3129 0.754555,0.4447 0.250282,0.1775 0.53196,0.2975 0.793044,0.4566 0.329953,0.1445 0.633451,0.333 0.936422,0.527 0.311167,0.2924 0.657848,0.5352 1.005411,0.7805 0.400578,0.2891 0.799753,0.5797 1.221455,0.8381 0.312121,0.2278 0.632813,0.4458 0.934031,0.6872 0.431524,0.3602 0.836553,0.7544 1.250864,1.1353 0.421746,0.447 0.858226,0.873 1.322397,1.2756 0.499761,0.4483 1.022523,0.867 1.550335,1.2807 0.336658,0.2776 0.645297,0.586 0.974157,0.8722 0.367631,0.3062 0.638469,0.6901 0.878455,1.1003 0.221167,0.4535 0.439413,0.9041 0.717138,1.3264 0.221828,0.3073 0.383631,0.6477 0.525903,0.9974 0.109618,0.3611 0.30773,0.6763 0.489199,1.002 0.193457,0.3417 0.301032,0.7195 0.418676,1.0914 0.181931,0.3338 0.223718,0.7002 0.27671,1.0698 0.07158,0.4285 0.126722,0.8591 0.157431,1.2925 0.01915,0.3096 0.02023,0.6201 0.02089,0.9302 -5.2e-5,0.292 -7.79e-4,0.5839 -0.0011,0.8759 -0.0047,0.291 0.0098,0.5826 -0.01005,0.873 -0.04848,0.2526 -0.09341,0.5045 -0.116,0.7609 -0.0028,0.046 -0.0056,0.091 -0.0084,0.1374 0,0 -1.941837,0.9772 -1.941837,0.9772 l 0,0 c 0.0019,-0.048 0.0037,-0.095 0.0056,-0.1417 0.01562,-0.2601 0.04017,-0.5202 0.10902,-0.7724 0.06026,-0.2767 0.0084,-0.5668 0.0256,-0.8482 2.74e-4,-0.292 7.79e-4,-0.5838 0.0015,-0.8757 3.8e-4,-0.3069 0.0015,-0.6141 -0.01039,-0.9211 -0.02089,-0.4289 -0.06295,-0.8565 -0.136865,-1.2798 -0.06078,-0.3563 -0.0975,-0.7124 -0.273164,-1.0362 -0.108974,-0.3588 -0.204434,-0.7259 -0.395339,-1.0524 -0.187598,-0.3328 -0.381783,-0.6599 -0.504306,-1.0251 -0.13481,-0.3386 -0.288021,-0.6667 -0.497933,-0.9662 -0.271477,-0.4302 -0.49627,-0.88 -0.714095,-1.3389 -0.229389,-0.392 -0.507084,-0.7391 -0.85218,-1.0365 -0.320967,-0.2891 -0.63635,-0.5845 -0.96392,-0.8663 -0.517724,-0.4264 -1.028165,-0.8607 -1.53826,-1.2964 -0.471183,-0.3996 -0.911056,-0.824 -1.329148,-1.2791 -0.41511,-0.3753 -0.819411,-0.7664 -1.263895,-1.1063 -0.30401,-0.2256 -0.600183,-0.4611 -0.911206,-0.6771 -0.419572,-0.2705 -0.829164,-0.5553 -1.237891,-0.8417 -0.34359,-0.244 -0.67213,-0.5044 -0.997404,-0.7718 -0.304677,-0.1889 -0.617988,-0.3568 -0.938147,-0.5172 -0.264487,-0.1476 -0.533772,-0.2854 -0.791136,-0.4455 -0.26218,-0.1422 -0.520624,-0.2862 -0.761702,-0.4625 -0.33512,-0.2278 -0.641139,-0.4991 -1.001762,-0.6895 -0.500765,-0.3171 -1.011863,-0.6147 -1.540696,-0.8833 -0.518264,-0.2702 -1.052089,-0.5099 -1.601857,-0.7093 -0.582875,-0.18 -1.156506,-0.3905 -1.746828,-0.5441 0,0 1.788766,-1.2338 1.788766,-1.2338 z"
       inkscape:connector-curvature="0" />
    <path
       style="fill:#008000;fill-opacity:1;stroke:#000000;stroke-width:0;stroke-miterlimit:4;stroke-opacity:1;stroke-dasharray:none"
       id="path4101"
       d="m 72.427218,1010.6037 c -0.292037,0.3202 -0.536948,0.6626 -0.804093,0.9945 -0.204554,0.224 -0.366829,0.4685 -0.591648,0.681 -0.910796,0.8082 -1.402623,0.7119 -3.056546,1.5532 -0.73254,0.3727 1.521605,-0.6748 2.282408,-1.0124 -0.851987,0.3785 -1.701615,0.7601 -2.55596,1.1354 -0.05343,0.024 -0.220066,0.085 -0.166859,0.061 0.749899,-0.335 1.503681,-0.6648 2.257464,-0.9946 0.05493,-0.024 -0.105801,0.053 -0.160787,0.077 -2.225155,0.9699 -1.763522,0.7756 -2.786524,1.2044 -0.436159,0.1974 -0.915568,0.32 -1.372154,0.4841 -0.489569,0.1401 -0.978105,0.2886 -1.475766,0.4114 -0.490221,0.1062 -0.967031,0.2577 -1.431463,0.4183 -0.400457,0.105 -0.807319,0.2001 -1.219026,0.2784 -0.449661,0.08 -0.826854,0.2811 -1.260032,0.3989 4.986811,-2.6113 2.652788,-1.1473 1.995677,-0.8522 -1.045053,0.4692 -2.094846,1.1216 -3.314718,1.3474 -0.456388,0.1733 -0.953707,0.2886 -1.445183,0.3907 -0.538126,0.1249 -1.059263,0.2974 -1.541716,0.5192 0.718726,-0.3184 1.435979,-0.6387 2.156179,-0.9551 0.164495,-0.072 -0.319435,0.1568 -0.483563,0.2297 -1.115149,0.4943 -1.935437,1.0277 -3.08194,1.2731 0.463796,-0.2445 -1.250694,0.5206 -0.750891,0.2999 2.362908,-1.0432 2.909918,-1.3705 2.045656,-0.8687 -0.497739,0.2726 -0.834089,0.6726 -1.201894,1.0399 -0.349395,0.3736 -0.807179,0.6623 -1.286311,0.9308 -0.869784,0.3872 -1.738232,0.7762 -2.609354,1.1616 -0.187398,0.082 -0.382241,0.1459 -0.569214,0.2289 -0.05326,0.024 -0.216785,0.089 -0.16357,0.066 0.751617,-0.3349 1.505953,-0.6662 2.258931,-0.9993 -0.860293,0.3796 -1.718738,0.7614 -2.580878,1.1384 -0.759338,0.332 1.513219,-0.6714 2.27247,-1.0035 0.04824,-0.021 -0.09092,0.049 -0.13915,0.07 -0.622606,0.2725 -1.933834,0.9194 -2.914689,1.2472 -0.902196,0.2276 -2.181324,0.88 1.910335,-0.8797 0.06286,-0.027 -0.121561,0.06 -0.180507,0.091 -0.142387,0.077 -0.259596,0.1513 -0.396315,0.2349 -0.417733,0.2513 -0.852236,0.4807 -1.240293,0.7596 -0.366186,0.2716 -0.754912,0.5239 -1.117672,0.7982 -0.303179,0.251 -0.57718,0.5218 -0.851734,0.7913 -0.318615,0.3039 -0.604713,0.6238 -0.85435,0.9638 -0.208104,0.3889 -0.351016,0.7944 -0.560689,1.1838 -0.17522,0.3526 -0.425591,0.6757 -0.613266,1.0239 -0.301704,0.4998 -0.421143,1.0454 -0.583728,1.5778 -0.147511,0.4292 -0.364453,0.8415 -0.535592,1.2648 -0.115427,0.4009 -0.16547,0.8106 -0.250382,1.2161 -0.05021,0.2983 -0.08841,0.5946 -0.178443,0.8876 -0.05007,0.1861 -0.02398,0.091 -0.0784,0.2823 0,0 -2.550285,0.9352 -2.550285,0.9352 l 0,0 c 0.07444,-0.1734 0.04637,-0.082 0.08031,-0.2741 0.08651,-0.2922 0.17618,-0.5777 0.198374,-0.8792 0.08885,-0.4122 0.165649,-0.8238 0.242136,-1.2373 0.130586,-0.4344 0.392791,-0.8389 0.5556,-1.2672 0.180102,-0.5331 0.262879,-1.0891 0.548375,-1.5978 0.178473,-0.356 0.411686,-0.6822 0.607225,-1.0306 0.237771,-0.3855 0.400912,-0.7891 0.558398,-1.1973 0.219948,-0.3578 0.505206,-0.6876 0.828936,-0.9949 0.26579,-0.2829 0.55636,-0.5438 0.83551,-0.8187 0.359449,-0.2824 0.744986,-0.5382 1.120493,-0.8075 0.131831,-0.095 0.253231,-0.1976 0.385962,-0.2913 0.260132,-0.1839 0.590286,-0.2953 0.840065,-0.4901 0.52441,-0.2782 -0.08726,0.059 0.384834,-0.2417 0.914207,-0.5832 2.009988,-1.0046 3.107007,-1.3563 0.900629,-0.3422 1.818218,-0.7845 -1.93346,0.8929 -0.04793,0.022 0.09482,-0.044 0.142689,-0.065 0.85346,-0.3838 1.721281,-0.7494 2.561277,-1.1505 0.738318,-0.3525 -1.504074,0.6699 -2.256111,1.0048 0.859306,-0.3814 1.718092,-0.7635 2.577918,-1.1444 0.171411,-0.076 0.351216,-0.1381 0.525996,-0.2091 0.06654,-0.027 0.263084,-0.1118 0.198207,-0.083 -0.732783,0.3312 -1.468011,0.6592 -2.202017,0.9888 0.49414,-0.2381 0.968074,-0.5167 1.330071,-0.8713 0.378449,-0.3683 0.706902,-0.7738 1.158103,-1.092 1.11639,-0.5937 2.279899,-1.1798 3.550198,-1.5585 0.140236,-0.042 0.543034,-0.1978 0.413601,-0.1389 -0.722496,0.3292 -1.451434,0.6499 -2.177532,0.9742 -0.08033,0.036 0.161531,-0.071 0.240252,-0.1084 0.08247,-0.039 0.159116,-0.087 0.243131,-0.1243 0.880777,-0.3963 1.767189,-0.7852 2.650783,-1.1778 0.506202,-0.1992 1.03406,-0.3665 1.583102,-0.4823 0.490237,-0.1164 0.971268,-0.2512 1.449364,-0.3932 0.191498,-0.05 0.233897,-0.056 0.419644,-0.125 0.07422,-0.027 0.289628,-0.1203 0.218668,-0.088 -0.723388,0.327 -1.448988,0.6511 -2.176168,0.973 -0.07514,0.034 0.146572,-0.071 0.219859,-0.1073 0.873789,-0.3881 1.747577,-0.7761 2.621365,-1.1642 0.421865,-0.1404 0.827268,-0.3106 1.282678,-0.3823 0.400557,-0.09 0.808613,-0.1663 1.190711,-0.2986 0.474612,-0.1439 0.94357,-0.2992 1.436653,-0.4034 0.487319,-0.1396 0.984928,-0.2585 1.45838,-0.4251 0.466351,-0.1544 0.931389,-0.31 1.37638,-0.4992 0.963734,-0.3448 0.247831,-0.094 -2.050734,0.9354 -0.05439,0.024 0.108421,-0.05 0.162865,-0.073 0.859531,-0.3837 1.718585,-0.7682 2.579042,-1.1507 0.05416,-0.024 0.218792,-0.094 0.164749,-0.07 -0.760313,0.341 -1.522415,0.6795 -2.283622,1.0194 0.851091,-0.3811 1.685176,-0.7856 2.553278,-1.1432 0.771783,-0.3179 -1.5084,0.684 -2.264114,1.024 -0.04856,0.022 0.09809,-0.043 0.142582,-0.069 0.165058,-0.098 0.10221,-0.085 0.244074,-0.2052 0.0392,-0.034 0.08467,-0.061 0.126997,-0.093 0.258614,-0.1914 0.430639,-0.4227 0.617668,-0.6568 0.301404,-0.302 0.514239,-0.6724 0.795691,-0.9881 0,0 2.591022,-0.8724 2.591022,-0.8724 z"
       inkscape:connector-curvature="0" />
    <rect
       style="fill:#800000;stroke:#000000;stroke-width:0;stroke-miterlimit:4;stroke-opacity:1;stroke-dasharray:none"
       id="rect3828-37"
       width="31.502434"
       height="16.85014"
       x="3.3070598"
       y="994.60681"
       ry="0" />
    <rect
       style="fill:#ffffff;fill-opacity:1;stroke:#000000;stroke-width:0.77928883;stroke-miterlimit:4;stroke-opacity:1;stroke-dasharray:none"
       id="rect3001-0-6"
       width="12.014884"
       height="10.696176"
       x="19.917328"
       y="997.75696"
       ry="2.930459" />
    <rect
       style="fill:#ffffff;fill-opacity:1;stroke:#000000;stroke-width:0.77928883;stroke-miterlimit:4;stroke-opacity:1;stroke-dasharray:none"
       id="rect3001-8"
       width="12.014884"
       height="10.696176"
       x="6.2906957"
       y="997.53729"
       ry="2.930459" />
    <rect
       style="fill:#008000;stroke:#000000;stroke-width:0;stroke-miterlimit:4;stroke-opacity:1;stroke-dasharray:none"
       id="rect3828-37-9"
       width="31.502434"
       height="16.85014"
       x="47.904385"
       y="994.84552"
       ry="0" />
    <rect
       style="fill:#ffffff;fill-opacity:1;stroke:#000000;stroke-width:0.77928883;stroke-miterlimit:4;stroke-opacity:1;stroke-dasharray:none"
       id="rect3001-0-6-3"
       width="12.014884"
       height="10.696176"
       x="64.514656"
       y="997.99573"
       ry="2.930459" />
    <rect
       style="fill:#ffffff;fill-opacity:1;stroke:#000000;stroke-width:0.77928883;stroke-miterlimit:4;stroke-opacity:1;stroke-dasharray:none"
       id="rect3001-8-7"
       width="12.014884"
       height="10.696176"
       x="50.888016"
       y="997.77594"
       ry="2.930459" />
    <text
       xml:space="preserve"
       style="font-size:24.66157532px;font-style:normal;font-weight:normal;line-height:125%;letter-spacing:0px;word-spacing:0px;fill:#000000;fill-opacity:1;stroke:none;font-family:Sans"
       x="34.446339"
       y="1012.2961"
       id="text4053"
       sodipodi:linespacing="125%"><tspan
         sodipodi:role="line"
         id="tspan4055"
         x="34.446339"
         y="1012.2961">=</tspan></text>
    <rect
       style="fill:#800000;stroke:#000000;stroke-width:0;stroke-miterlimit:4;stroke-opacity:1;stroke-dasharray:none"
       id="rect3828-37-1"
       width="31.502434"
       height="16.85014"
       x="25.712072"
       y="1026.9918"
       ry="0" />
    <rect
       style="fill:#008000;stroke:#000000;stroke-width:0;stroke-miterlimit:4;stroke-opacity:1;stroke-dasharray:none"
       id="rect3828-37-9-0"
       width="15.531432"
       height="16.85014"
       x="41.683075"
       y="1026.9918"
       ry="0" />
    <rect
       style="fill:#ffffff;fill-opacity:1;stroke:#000000;stroke-width:0.77928883;stroke-miterlimit:4;stroke-opacity:1;stroke-dasharray:none"
       id="rect3001-0-6-4"
       width="12.014884"
       height="10.696176"
       x="42.322338"
       y="1030.142"
       ry="2.930459" />
    <rect
       style="fill:#ffffff;fill-opacity:1;stroke:#000000;stroke-width:0.77928883;stroke-miterlimit:4;stroke-opacity:1;stroke-dasharray:none"
       id="rect3001-8-1"
       width="12.014884"
       height="10.696176"
       x="28.695707"
       y="1029.9225"
       ry="2.930459" />
  </g>
</svg>
