<?xml version="1.0" encoding="UTF-8" standalone="no"?>
<!-- Created with Inkscape (http://www.inkscape.org/) -->

<svg
   xmlns:dc="http://purl.org/dc/elements/1.1/"
   xmlns:cc="http://creativecommons.org/ns#"
   xmlns:rdf="http://www.w3.org/1999/02/22-rdf-syntax-ns#"
   xmlns:svg="http://www.w3.org/2000/svg"
   xmlns="http://www.w3.org/2000/svg"
   xmlns:sodipodi="http://sodipodi.sourceforge.net/DTD/sodipodi-0.dtd"
   xmlns:inkscape="http://www.inkscape.org/namespaces/inkscape"
   width="82"
   height="70"
   id="svg2"
   version="1.1"
   inkscape:version="0.48.1 "
   sodipodi:docname="join.svg"
   inkscape:export-filename="C:\Users\Work\workspace\Scampi\src\Scampi\gui\ScaiOperators\src\main\webapp\images\operators\join.png"
   inkscape:export-xdpi="90"
   inkscape:export-ydpi="90">
  <defs
     id="defs4" />
  <sodipodi:namedview
     id="base"
     pagecolor="#ffffff"
     bordercolor="#666666"
     borderopacity="1.0"
     inkscape:pageopacity="0.0"
     inkscape:pageshadow="2"
     inkscape:zoom="5.3185439"
     inkscape:cx="8.360988"
     inkscape:cy="53.561213"
     inkscape:document-units="px"
     inkscape:current-layer="layer1"
     showgrid="false"
     inkscape:window-width="1920"
     inkscape:window-height="1018"
     inkscape:window-x="1358"
     inkscape:window-y="-8"
     inkscape:window-maximized="1" />
  <metadata
     id="metadata7">
    <rdf:RDF>
      <cc:Work
         rdf:about="">
        <dc:format>image/svg+xml</dc:format>
        <dc:type
           rdf:resource="http://purl.org/dc/dcmitype/StillImage" />
      </cc:Work>
    </rdf:RDF>
  </metadata>
  <g
     inkscape:label="Ebene 1"
     inkscape:groupmode="layer"
     id="layer1"
     transform="translate(0,-982.36218)">
    <rect
       style="fill:#008000;stroke:#000000;stroke-width:0;stroke-miterlimit:4;stroke-opacity:1;stroke-dasharray:none"
       id="rect3828"
       width="46.253262"
       height="21.622459"
       x="1.1281285"
       y="990.87921"
       ry="0" />
    <rect
       style="fill:#800000;stroke:#000000;stroke-width:0;stroke-miterlimit:4;stroke-opacity:1;stroke-dasharray:none"
       id="rect3828-5"
       width="29.143314"
       height="21.622459"
       x="52.303314"
       y="991.16125"
       ry="0" />
    <rect
       style="fill:#d45500;stroke:#000000;stroke-width:0;stroke-miterlimit:4;stroke-opacity:1;stroke-dasharray:none"
       id="rect3828-7"
       width="58.036201"
       height="21.622459"
       x="14.853689"
       y="1025.5692"
       ry="0" />
    <path
       style="fill:#000000;fill-opacity:1;stroke:#000000;stroke-width:0.91702819;stroke-miterlimit:4;stroke-opacity:1;stroke-dasharray:none"
       id="path3871"
       d="m 15.43304,997.35095 c 0.139002,0.6265 0.682505,1.21268 1.160166,1.79675 0.802678,0.8768 1.268116,1.8065 1.836842,2.7183 0.861134,1.3507 1.505869,2.7273 2.135697,4.1038 0.640562,1.509 1.311292,3.0151 1.915191,4.5273 0.401781,1.0122 0.664205,2.0336 0.981303,3.0515 0.335182,1.1335 0.726812,2.2632 1.074096,3.396 0.367323,1.1606 0.524708,2.3309 0.721678,3.4991 0.193754,0.923 0.463215,1.8419 0.660354,2.7648 0.144622,0.7678 0.266754,1.5383 0.196537,2.3095 -0.02966,0.3258 -0.112869,0.6813 -0.180086,1.0056 -0.263161,1.1214 -0.350494,2.2487 -0.40387,3.3755 -0.05286,1.2643 -0.04825,2.5289 -0.02324,3.7933 0.01482,0.6836 0.07974,1.3672 -0.01727,2.0499 -0.05304,0.5156 -0.203523,1.0272 -0.310012,1.5407 -0.141647,0.452 -0.261123,0.9047 -0.322484,1.3606 -0.01532,0.1658 -0.026,0.3311 -0.05615,0.4965 0,0 -3.372356,0.7657 -3.372356,0.7657 l 0,0 c 0.06264,-0.1634 0.07366,-0.326 0.08868,-0.4919 0.06755,-0.4581 0.166887,-0.9144 0.325727,-1.3679 0.115167,-0.5129 0.274508,-1.0236 0.325409,-1.5391 0.117655,-0.6858 0.09969,-1.3724 0.120427,-2.0601 0.02488,-1.2678 0.02757,-2.5357 0.05097,-3.8034 0.03963,-1.1269 0.08257,-2.2554 0.348733,-3.377 0.02358,-0.1114 0.189465,-0.885 0.204772,-0.9983 0.10331,-0.7649 -0.0137,-1.53 -0.170495,-2.2915 -0.221456,-0.9213 -0.537133,-1.837 -0.700971,-2.7614 -0.161889,-1.171 -0.239218,-2.3462 -0.627313,-3.5083 -0.355829,-1.1287 -0.814034,-2.2441 -1.173009,-3.3717 -0.32487,-1.0216 -0.466143,-2.0558 -0.867928,-3.0733 -0.560526,-1.5146 -1.265587,-3.017 -1.895784,-4.5256 -0.63971,-1.368 -1.283609,-2.7386 -2.196274,-4.0747 -0.587119,-0.9031 -1.064894,-1.8255 -1.872116,-2.69455 -0.493803,-0.59363 -1.055101,-1.18281 -1.293552,-1.81257 0,0 3.336318,-0.80353 3.336318,-0.80353 z"
       inkscape:connector-curvature="0" />
    <path
       style="fill:#000000;fill-opacity:1;stroke:#000000;stroke-width:0.98396486;stroke-miterlimit:4;stroke-opacity:1;stroke-dasharray:none"
       id="path3873"
       d="m 33.996419,997.59718 c 0.279474,1.15916 0.690577,2.3123 1.137104,3.46082 0.63157,1.4233 1.431014,2.8301 2.016287,4.2576 0.380124,1.197 1.05242,2.3673 1.706141,3.5383 0.660745,1.4323 1.135435,2.877 1.390904,4.3346 0.217689,1.6811 0.439336,3.3599 0.884462,5.0325 0.350526,1.4286 0.820349,2.8503 1.200148,4.2772 0.265839,0.8563 0.305974,1.7223 0.491465,2.5815 0.0257,0.3506 0.267236,0.6835 0.401626,1.0259 0.145713,0.5883 0.10639,1.1827 0.108038,1.7738 -0.01864,0.6986 -0.247434,1.3912 -0.393842,2.0858 -0.153116,0.8077 -0.161645,1.6192 -0.172765,2.4293 6.93e-4,0.7472 0.01673,1.4944 0.03082,2.2416 0.0154,0.636 0.01074,1.272 -0.05047,1.9074 -0.06819,0.8696 -0.227906,1.7196 -0.665852,2.568 -0.237243,0.4971 -0.602374,0.9791 -0.885989,1.4709 0,0 -3.654309,0.7821 -3.654309,0.7821 l 0,0 c 0.280193,-0.496 0.68408,-0.9761 0.923793,-1.4769 0.10742,-0.1861 0.323944,-0.5468 0.394504,-0.7312 0.228151,-0.5959 0.250177,-1.2071 0.330575,-1.8089 0.0366,-0.6305 -0.0046,-1.2608 0.01192,-1.8915 0.01089,-0.7525 0.02263,-1.5051 0.03388,-2.2575 0.0053,-0.8093 -0.02486,-1.6199 0.08487,-2.4281 0.155648,-0.6925 0.431326,-1.3809 0.453171,-2.0783 -0.01525,-0.5763 -0.01294,-1.155 -0.15977,-1.7284 -0.131281,-0.3499 -0.371809,-0.6906 -0.378487,-1.0493 -0.135827,-0.8684 -0.10561,-1.7424 -0.351567,-2.608 -0.345319,-1.4311 -0.837186,-2.854 -1.159999,-4.2863 -0.414326,-1.6749 -0.629275,-3.3559 -0.89628,-5.0363 -0.269894,-1.4449 -0.706458,-2.8812 -1.408955,-4.2979 -0.662623,-1.1747 -1.370359,-2.3458 -1.711716,-3.5507 -0.556262,-1.4319 -1.302942,-2.8455 -1.986997,-4.2658 -0.435676,-1.1428 -0.850876,-2.28724 -1.34983,-3.42493 0,0 3.627175,-0.84729 3.627175,-0.84729 z"
       inkscape:connector-curvature="0" />
    <rect
       style="fill:#ffffff;fill-opacity:1;stroke:#000000;stroke-width:1;stroke-miterlimit:4;stroke-opacity:1;stroke-dasharray:none"
       id="rect3001"
       width="15.417755"
       height="13.72556"
       x="6.9567914"
       y="994.63965"
       ry="3.7604272" />
    <rect
       style="fill:#ffffff;fill-opacity:1;stroke:#000000;stroke-width:1;stroke-miterlimit:4;stroke-opacity:1;stroke-dasharray:none"
       id="rect3001-0"
       width="15.417755"
       height="13.72556"
       x="24.44278"
       y="994.92163"
       ry="3.7604272" />
    <rect
       style="fill:#ffffff;fill-opacity:1;stroke:#000000;stroke-width:1;stroke-miterlimit:4;stroke-opacity:1;stroke-dasharray:none"
       id="rect3001-1"
       width="15.417755"
       height="13.72556"
       x="17.768017"
       y="1029.5646"
       ry="3.7604272" />
    <rect
       style="fill:#ffffff;fill-opacity:1;stroke:#000000;stroke-width:1;stroke-miterlimit:4;stroke-opacity:1;stroke-dasharray:none"
       id="rect3001-0-0"
       width="15.417755"
       height="13.72556"
       x="35.254013"
       y="1029.8466"
       ry="3.7604272" />
    <path
       style="fill:#000000;fill-opacity:1;stroke:#000000;stroke-width:0;stroke-miterlimit:4;stroke-opacity:1;stroke-dasharray:none"
       id="path3881"
       d="m 70.798585,999.25734 c -0.168779,0.61921 -0.221132,1.24636 -0.308076,1.87006 -0.184492,1.8993 -0.277229,3.8002 -0.470445,5.6994 -0.199445,1.7797 -0.7545,3.5393 -1.081833,5.3123 -0.225794,1.2864 -0.256194,2.5786 -0.273865,3.8695 -0.03762,1.1446 0.0322,2.2965 -0.216743,3.436 -0.06321,0.2894 -0.157282,0.5766 -0.235924,0.8649 -0.464606,1.4737 -1.063615,2.9354 -1.872817,4.3669 -0.662438,1.0093 -0.935101,2.0655 -1.185869,3.1203 -0.126189,0.9727 -0.555759,1.9182 -1.062393,2.8519 -0.500502,0.9301 -1.045429,1.8536 -1.709586,2.7547 -0.561424,0.7646 -1.126411,1.5275 -1.634975,2.3025 -0.656554,0.8145 -1.38699,1.6131 -2.112836,2.4112 -0.50673,0.5602 -0.975011,1.125 -1.365893,1.7107 -0.167057,0.2608 -0.361002,0.516 -0.562031,0.7698 0,0 -3.072338,0.7467 -3.072338,0.7467 l 0,0 c 0.212726,-0.2489 0.412597,-0.5002 0.577881,-0.7594 0.178484,-0.2693 0.340942,-0.5434 0.556255,-0.8054 0.298559,-0.3632 0.211105,-0.2134 0.542518,-0.586 0.101377,-0.114 0.191303,-0.2307 0.286954,-0.3461 0.728439,-0.7939 1.464047,-1.5871 2.137036,-2.3942 0.505776,-0.7782 1.046335,-1.5484 1.63103,-2.3111 0.697164,-0.8911 1.245275,-1.8121 1.732417,-2.741 0.51471,-0.9278 0.971493,-1.8661 1.110702,-2.8339 0.255899,-1.0639 0.460204,-2.1377 1.175194,-3.1506 0.844533,-1.4288 1.520704,-2.8832 1.970971,-4.3624 0.07493,-0.2834 0.166313,-0.5658 0.224792,-0.8503 0.232612,-1.1317 0.136087,-2.2727 0.163876,-3.4083 0.02841,-1.2996 0.08143,-2.6005 0.304366,-3.8955 0.358485,-1.7828 0.966916,-3.5484 1.21217,-5.3377 0.187181,-1.8826 0.232678,-3.7651 0.281338,-5.6496 0.04565,-0.6178 0.08393,-1.2368 0.178321,-1.853 0,0 3.079803,-0.80236 3.079803,-0.80236 z"
       inkscape:connector-curvature="0" />
    <rect
       style="fill:#ffffff;fill-opacity:1;stroke:#000000;stroke-width:1;stroke-miterlimit:4;stroke-opacity:1;stroke-dasharray:none"
       id="rect3001-0-9"
       width="15.417755"
       height="13.72556"
       x="58.978073"
       y="995.25073"
       ry="3.7604272" />
    <rect
       style="fill:#ffffff;fill-opacity:1;stroke:#000000;stroke-width:1;stroke-miterlimit:4;stroke-opacity:1;stroke-dasharray:none"
       id="rect3001-0-5"
       width="15.417755"
       height="13.72556"
       x="52.92802"
       y="1029.6586"
       ry="3.7604272" />
  </g>
</svg>
