<?xml version="1.0" encoding="UTF-8" standalone="no"?>
<!-- Created with Inkscape (http://www.inkscape.org/) -->

<svg
   xmlns:dc="http://purl.org/dc/elements/1.1/"
   xmlns:cc="http://creativecommons.org/ns#"
   xmlns:rdf="http://www.w3.org/1999/02/22-rdf-syntax-ns#"
   xmlns:svg="http://www.w3.org/2000/svg"
   xmlns="http://www.w3.org/2000/svg"
   xmlns:sodipodi="http://sodipodi.sourceforge.net/DTD/sodipodi-0.dtd"
   xmlns:inkscape="http://www.inkscape.org/namespaces/inkscape"
   width="82"
   height="70"
   id="svg2"
   version="1.1"
   inkscape:version="0.48.1 "
   sodipodi:docname="project.svg"
   inkscape:export-filename="C:\Users\Work\workspace\Scampi\src\Scampi\gui\ScaiOperators\src\main\webapp\images\operators\project.png"
   inkscape:export-xdpi="90"
   inkscape:export-ydpi="90">
  <defs
     id="defs4" />
  <sodipodi:namedview
     id="base"
     pagecolor="#ffffff"
     bordercolor="#666666"
     borderopacity="1.0"
     inkscape:pageopacity="0.0"
     inkscape:pageshadow="2"
     inkscape:zoom="5.3185439"
     inkscape:cx="8.360988"
     inkscape:cy="53.561213"
     inkscape:document-units="px"
     inkscape:current-layer="layer1"
     showgrid="false"
     inkscape:window-width="1920"
     inkscape:window-height="1018"
     inkscape:window-x="1358"
     inkscape:window-y="-8"
     inkscape:window-maximized="1" />
  <metadata
     id="metadata7">
    <rdf:RDF>
      <cc:Work
         rdf:about="">
        <dc:format>image/svg+xml</dc:format>
        <dc:type
           rdf:resource="http://purl.org/dc/dcmitype/StillImage" />
        <dc:title />
      </cc:Work>
    </rdf:RDF>
  </metadata>
  <g
     inkscape:label="Ebene 1"
     inkscape:groupmode="layer"
     id="layer1"
     transform="translate(0,-982.36218)">
    <rect
       style="fill:#008000;stroke:#000000;stroke-width:0;stroke-miterlimit:4;stroke-opacity:1;stroke-dasharray:none"
       id="rect3828"
       width="79.909088"
       height="21.622459"
       x="1.2312297"
       y="992.7594"
       ry="0" />
    <rect
       style="fill:#d45500;stroke:#000000;stroke-width:0;stroke-miterlimit:4;stroke-opacity:1;stroke-dasharray:none"
       id="rect3828-7"
       width="77.590424"
       height="21.622459"
       x="3.1963654"
       y="1022.1847"
       ry="0" />
    <rect
       style="fill:#ffffff;fill-opacity:1;stroke:#000000;stroke-width:1;stroke-miterlimit:4;stroke-opacity:1;stroke-dasharray:none"
       id="rect3001-0"
       width="15.417755"
       height="13.72556"
       x="24.545881"
       y="996.80182"
       ry="3.7604272" />
    <rect
       style="fill:#ffffff;fill-opacity:1;stroke:#000000;stroke-width:1;stroke-miterlimit:4;stroke-opacity:1;stroke-dasharray:none"
       id="rect3001-3"
       width="15.417755"
       height="13.72556"
       x="60.150158"
       y="996.42578"
       ry="3.7604272" />
    <path
       style="fill:#000000;fill-opacity:1;stroke:#000000;stroke-width:0;stroke-miterlimit:4;stroke-opacity:1;stroke-dasharray:none"
       id="path3951"
       d="m 11.436061,1000.2734 c 0.388059,0.2365 0.86223,0.443 1.23915,0.6828 0.293042,0.1756 0.595244,0.35 0.830037,0.5421 0.221307,0.1794 0.417751,0.3653 0.651907,0.5415 0.212841,0.1611 0.50789,0.2973 0.749039,0.4513 0.385531,0.2259 0.770021,0.4483 1.102212,0.6902 0.307578,0.302 0.665211,0.5931 0.954801,0.8984 0.455646,0.4296 0.69115,0.8886 0.958147,1.3446 0.266565,0.4823 0.629451,0.9512 1.080304,1.4061 0.405946,0.3068 0.691806,0.6277 0.87948,0.9714 0.249841,0.4107 0.75241,0.7775 1.130828,1.1661 0.423804,0.4004 0.74219,0.8167 1.016422,1.2405 0.286696,0.3634 0.584265,0.7251 0.895749,1.0847 0.296644,0.3903 0.395744,0.8008 0.574664,1.2028 0.197446,0.3784 0.427195,0.7512 0.71731,1.1179 0.34718,0.3619 0.45512,0.7518 0.607697,1.1349 0.21734,0.41 0.401095,0.8227 0.588047,1.2354 0.28646,0.5452 0.446983,1.1004 0.659467,1.6514 0.152069,0.3754 0.186903,0.7567 0.329131,1.1325 0.118938,0.3817 0.188634,0.7663 0.275371,1.1497 0.119658,0.43 0.261895,0.8586 0.355227,1.2899 0.08011,0.3857 0.292647,0.7627 0.395916,1.148 0.123514,0.4865 0.01281,0.9775 -0.04019,1.4648 -0.03629,0.4561 -0.0513,0.9126 -0.05777,1.3691 0.02179,0.3747 -0.0059,0.7467 -0.09798,1.1192 -0.143959,0.5746 -0.153032,1.1533 -0.167264,1.7306 -0.0168,0.5767 0.0082,1.1533 0.0115,1.73 0.0093,0.4266 6.03e-4,0.8532 0.0054,1.2798 0.01046,0.3252 0.03182,0.6491 -0.05053,0.9728 -0.102898,0.342 -0.143435,0.6866 -0.166853,1.0312 -0.02285,0.3875 -0.01784,0.7742 -0.09013,1.1607 -0.08002,0.2973 -0.09922,0.597 -0.176708,0.8941 -0.142961,0.3807 -0.173582,0.7663 -0.247306,1.15 -0.0799,0.3069 -0.149971,0.614 -0.272028,0.9183 -0.08441,0.2052 -0.127606,0.4128 -0.164337,0.6205 0,0 -3.246108,0.7104 -3.246108,0.7104 l 0,0 c 0.03646,-0.2119 0.08061,-0.4236 0.150775,-0.6339 0.114363,-0.3035 0.210253,-0.6074 0.30124,-0.9126 0.102545,-0.3816 0.08478,-0.7683 0.223543,-1.1489 0.09105,-0.2964 0.09951,-0.597 0.199156,-0.8932 0.0889,-0.3828 0.08959,-0.7649 0.08514,-1.1494 0.02945,-0.3482 0.07143,-0.6963 0.152986,-1.0429 0.08954,-0.3196 0.09674,-0.6386 0.08897,-0.9607 0.0042,-0.4272 -0.0054,-0.8543 0.0026,-1.2815 0.0025,-0.5804 0.02821,-1.1607 0.03077,-1.7412 0.01072,-0.5765 -0.0081,-1.1544 0.08386,-1.7298 0.09372,-0.3691 0.170336,-0.7362 0.131476,-1.1085 0.0084,-0.4596 0.02374,-0.919 0.07274,-1.3782 0.03562,-0.4792 0.14947,-0.9608 0.05105,-1.4393 -0.05749,-0.2113 -0.12456,-0.4194 -0.224181,-0.6277 -0.01033,-0.022 -0.171785,-0.332 -0.180754,-0.3608 -0.01646,-0.053 -0.01242,-0.1065 -0.01864,-0.1597 -0.06668,-0.4328 -0.182355,-0.8635 -0.329326,-1.2925 -0.08686,-0.3788 -0.187905,-0.757 -0.294377,-1.1346 -0.1359,-0.3786 -0.158524,-0.7617 -0.294344,-1.1407 -0.190896,-0.5502 -0.340144,-1.1046 -0.654026,-1.6449 -0.199424,-0.4122 -0.385923,-0.8255 -0.612366,-1.2351 -0.149863,-0.3751 -0.22941,-0.7592 -0.585213,-1.1121 -0.287782,-0.375 -0.521565,-0.7542 -0.72744,-1.1395 -0.180725,-0.3933 -0.281445,-0.7948 -0.552717,-1.1789 -0.306704,-0.3649 -0.623494,-0.7282 -0.911678,-1.096 -0.265562,-0.4182 -0.541756,-0.8333 -0.982008,-1.2248 -0.392484,-0.3952 -0.885425,-0.7715 -1.178335,-1.1846 -0.192515,-0.3334 -0.434034,-0.6529 -0.83313,-0.9526 -0.453561,-0.4632 -0.808339,-0.9421 -1.092787,-1.4304 -0.269273,-0.4474 -0.499357,-0.8992 -0.954925,-1.3199 -0.286344,-0.2975 -0.656379,-0.5771 -0.951415,-0.8731 -0.325775,-0.2389 -0.701419,-0.459 -1.092021,-0.6784 -0.259722,-0.1541 -0.569607,-0.2934 -0.777449,-0.4622 -0.230525,-0.1792 -0.426368,-0.3669 -0.651419,-0.5475 -0.225305,-0.1877 -0.5348485,-0.3526 -0.8038495,-0.5285 -0.3718909,-0.2421 -0.8384849,-0.453 -1.2521869,-0.6812 0,0 3.1496784,-0.8079 3.1496784,-0.8079 z"
       inkscape:connector-curvature="0" />
    <path
       style="fill:#000000;fill-opacity:1;stroke:#000000;stroke-width:0;stroke-miterlimit:4;stroke-opacity:1;stroke-dasharray:none"
       id="path3953"
       d="m 45.945266,1002.7493 c 0.596431,0.3375 1.245653,0.665 1.829362,1.005 0.600465,0.3208 1.097743,0.6597 1.61233,0.9955 0.362438,0.2913 0.755943,0.5782 1.081444,0.8743 0.205588,0.2753 0.434591,0.5468 0.663418,0.8202 0.20221,0.3758 0.489908,0.7452 0.788058,1.1137 0.196713,0.3017 0.4112,0.6018 0.634818,0.9015 0.298676,0.2247 0.505485,0.4577 0.695362,0.6941 0.289222,0.2537 0.458573,0.5131 0.540415,0.7818 0.05773,0.2841 0.22036,0.5638 0.288943,0.8477 0.206429,0.3333 0.396385,0.6673 0.585696,1.0017 0.166467,0.278 0.25607,0.5594 0.432906,0.8367 0.191451,0.261 0.211831,0.5295 0.235047,0.7965 0.02214,0.3729 0.0128,0.746 0.0096,1.119 -0.03682,0.4055 0.03386,0.8088 0.12245,1.213 0.104544,0.3783 0.138207,0.758 0.169354,1.1375 0.01201,0.439 -0.0049,0.878 -0.0059,1.3169 -0.02284,0.473 0.130716,0.9443 0.216753,1.416 0.06192,0.3546 0.09514,0.7095 0.09408,1.0647 0.03768,0.3963 -0.03132,0.7908 -0.126449,1.1856 -0.108242,0.3921 -0.145808,0.7857 -0.167026,1.1791 -0.04846,0.5396 -0.130668,1.08 -0.264967,1.6181 -0.167723,0.4961 -0.396174,0.9889 -0.520035,1.4867 -0.133007,0.4839 -0.07976,0.9703 -0.146045,1.4549 -0.119463,0.3739 -0.155876,0.7498 -0.255592,1.124 -0.202684,0.3834 -0.396614,0.7664 -0.506127,1.1539 -0.08845,0.364 -0.09111,0.7292 -0.09516,1.0941 0.02306,0.3126 -0.115544,0.6228 -0.195734,0.9335 -0.06748,0.2536 -0.07062,0.5083 -0.08663,0.7625 0.01944,0.3549 -0.189343,0.704 -0.352073,1.053 -0.133923,0.2901 -0.193272,0.5826 -0.2287,0.8754 0.0037,0.2168 -0.0074,0.4307 -0.12422,0.6444 -0.0707,0.1147 -0.108226,0.2309 -0.138428,0.3472 0,0 -3.942936,0.6446 -3.942936,0.6446 l 0,0 c 0.02197,-0.121 0.04746,-0.2421 0.115417,-0.3615 0.123081,-0.209 0.213973,-0.4135 0.171741,-0.628 0.02399,-0.2996 0.10497,-0.5982 0.237123,-0.8949 0.15006,-0.342 0.380846,-0.6833 0.351163,-1.0306 -0.0033,-0.2578 0.02136,-0.5156 0.07286,-0.7728 0.08311,-0.3086 0.237759,-0.6161 0.230426,-0.9262 0.0053,-0.3685 0.01074,-0.7374 0.08295,-1.1053 0.09784,-0.3882 0.280885,-0.7726 0.503845,-1.1553 0.1261,-0.3725 0.120364,-0.7488 0.270449,-1.1208 0.124361,-0.4855 0.04891,-0.9744 0.161382,-1.4603 0.124931,-0.4986 0.329308,-0.9934 0.526241,-1.4892 0.164437,-0.5328 0.239845,-1.07 0.260471,-1.6053 0.01328,-0.3957 0.02659,-0.7919 0.140814,-1.1862 0.112335,-0.3905 0.187609,-0.7804 0.139123,-1.173 -0.01454,-0.3538 -0.01697,-0.7077 -0.0679,-1.0613 -0.07384,-0.4752 -0.217836,-0.9497 -0.210648,-1.4258 -3.55e-4,-0.436 -0.01011,-0.872 -0.02935,-1.308 -0.01122,-0.3785 -0.04781,-0.7568 -0.135315,-1.1342 -0.09806,-0.4069 -0.196207,-0.8131 -0.141889,-1.2217 -0.0022,-0.3705 -0.0039,-0.7411 -0.02667,-1.1115 -0.024,-0.258 -0.04783,-0.5175 -0.21876,-0.7707 -0.179484,-0.2792 -0.245716,-0.5629 -0.413839,-0.8431 -0.200828,-0.3382 -0.34574,-0.68 -0.613841,-1.0139 -0.07244,-0.2831 -0.226649,-0.5625 -0.28703,-0.8456 -0.0753,-0.261 -0.226339,-0.5146 -0.515301,-0.7604 -0.188385,-0.2368 -0.403046,-0.4699 -0.694886,-0.6956 -0.23724,-0.2991 -0.41582,-0.6025 -0.608468,-0.9048 -0.289326,-0.3677 -0.590137,-0.7349 -0.806467,-1.1082 -0.113489,-0.1336 -0.281027,-0.2654 -0.37448,-0.4005 -0.09448,-0.1366 -0.100498,-0.2808 -0.267525,-0.4124 -0.305612,-0.2927 -0.717041,-0.5705 -1.063973,-0.8579 -0.496076,-0.3361 -0.95142,-0.6794 -1.560303,-0.9963 -0.583446,-0.3399 -1.244831,-0.6648 -1.889915,-0.9923 0,0 3.818443,-0.7192 3.818443,-0.7192 z"
       inkscape:connector-curvature="0" />
    <rect
       style="fill:#ffffff;fill-opacity:1;stroke:#000000;stroke-width:1;stroke-miterlimit:4;stroke-opacity:1;stroke-dasharray:none"
       id="rect3001"
       width="15.417755"
       height="13.72556"
       x="7.0598922"
       y="996.51984"
       ry="3.7604272" />
    <rect
       style="fill:#ffffff;fill-opacity:1;stroke:#000000;stroke-width:1;stroke-miterlimit:4;stroke-opacity:1;stroke-dasharray:none"
       id="rect3001-0-0"
       width="15.417755"
       height="13.72556"
       x="19.784708"
       y="1026.4622"
       ry="3.7604272" />
    <rect
       style="fill:#ffffff;fill-opacity:1;stroke:#000000;stroke-width:1;stroke-miterlimit:4;stroke-opacity:1;stroke-dasharray:none"
       id="rect3001-0-9"
       width="15.417755"
       height="13.72556"
       x="42.911335"
       y="996.37878"
       ry="3.7604272" />
    <rect
       style="fill:#ffffff;fill-opacity:1;stroke:#000000;stroke-width:1;stroke-miterlimit:4;stroke-opacity:1;stroke-dasharray:none"
       id="rect3001-0-5"
       width="15.417755"
       height="13.72556"
       x="47.458714"
       y="1026.2742"
       ry="3.7604272" />
  </g>
</svg>
