<?xml version="1.0" encoding="UTF-8" standalone="no"?>
<!-- Created with Inkscape (http://www.inkscape.org/) -->

<svg
   xmlns:dc="http://purl.org/dc/elements/1.1/"
   xmlns:cc="http://creativecommons.org/ns#"
   xmlns:rdf="http://www.w3.org/1999/02/22-rdf-syntax-ns#"
   xmlns:svg="http://www.w3.org/2000/svg"
   xmlns="http://www.w3.org/2000/svg"
   xmlns:sodipodi="http://sodipodi.sourceforge.net/DTD/sodipodi-0.dtd"
   xmlns:inkscape="http://www.inkscape.org/namespaces/inkscape"
   width="82"
   height="70"
   id="svg2"
   version="1.1"
   inkscape:version="0.48.1 "
   sodipodi:docname="rename.svg"
   inkscape:export-filename="C:\Users\Work\workspace\Scampi\src\Scampi\gui\ScaiOperators\src\main\webapp\images\operators\rename.png"
   inkscape:export-xdpi="90"
   inkscape:export-ydpi="90">
  <defs
     id="defs4" />
  <sodipodi:namedview
     id="base"
     pagecolor="#ffffff"
     bordercolor="#666666"
     borderopacity="1.0"
     inkscape:pageopacity="0.0"
     inkscape:pageshadow="2"
     inkscape:zoom="5.3185439"
     inkscape:cx="8.360988"
     inkscape:cy="53.561213"
     inkscape:document-units="px"
     inkscape:current-layer="layer1"
     showgrid="false"
     inkscape:window-width="1920"
     inkscape:window-height="1018"
     inkscape:window-x="1358"
     inkscape:window-y="-8"
     inkscape:window-maximized="1" />
  <metadata
     id="metadata7">
    <rdf:RDF>
      <cc:Work
         rdf:about="">
        <dc:format>image/svg+xml</dc:format>
        <dc:type
           rdf:resource="http://purl.org/dc/dcmitype/StillImage" />
        <dc:title />
      </cc:Work>
    </rdf:RDF>
  </metadata>
  <g
     inkscape:label="Ebene 1"
     inkscape:groupmode="layer"
     id="layer1"
     transform="translate(0,-982.36218)">
    <path
       style="fill:#000000;fill-opacity:1;stroke:#000000;stroke-width:0;stroke-miterlimit:4;stroke-opacity:1;stroke-dasharray:none"
       id="path4139"
       d="m 31.209287,991.90326 c 0.970018,0.54727 2.236709,1.06005 3.397392,1.58458 0.974632,0.49658 1.889037,0.9991 2.866065,1.49544 0.717872,0.40301 1.383168,0.80947 1.971348,1.2241 0.754397,0.71836 1.636237,1.42906 2.356811,2.14952 0.88871,0.93606 1.530842,1.883 2.192253,2.8292 0.439057,0.7825 0.865599,1.5643 1.42612,2.3425 0.341684,0.5481 0.991758,1.0807 1.382676,1.6267 0.443931,0.5399 0.6987,1.0868 1.028426,1.631 0.318202,0.6137 0.846837,1.2189 1.158761,1.8328 0.130281,0.6421 0.321386,1.2817 0.559369,1.922 0.372032,0.741 0.884862,1.4773 1.272948,2.2175 0.441184,0.7629 0.500963,1.5328 0.567937,2.3015 0.0416,0.7024 0.04579,1.405 0.04936,2.1075 -0.05449,0.7585 0.04335,1.5176 -0.106722,2.2755 -0.218152,0.9564 -0.71813,1.9068 -1.035964,2.8614 -0.206585,1.0524 -0.442026,2.103 -0.978062,3.1488 -0.524684,0.9023 -0.705031,1.8124 -0.798631,2.7221 -0.0881,0.8529 -0.05957,1.706 -0.01901,2.5589 0.03299,0.4629 0.04214,0.9258 0.04468,1.3887 0.0037,0.4901 -0.329769,0.9763 -0.52491,1.4635 -0.07662,0.5533 -0.391173,1.1014 -0.637392,1.6514 -0.113212,0.647 -0.507061,1.2848 -0.953605,1.9227 -0.53,0.7273 -1.127142,1.4517 -1.672062,2.1783 -0.397337,0.5269 -0.415923,1.063 -0.746615,1.5916 -0.360466,0.4892 -0.421437,0.9856 -0.713176,1.4768 -0.235189,0.4957 -0.639356,0.985 -0.961347,1.4775 -0.277181,0.4105 -0.241553,0.8271 -0.391977,1.24 -0.03726,0.054 -0.07464,0.1075 -0.111926,0.1603 0,0 -9.745671,1.1303 -9.745671,1.1303 l 0,0 c 0.04804,-0.051 0.09609,-0.1002 0.144108,-0.1492 0.358837,-0.4069 0.110109,-0.8351 0.438505,-1.2453 0.273144,-0.4953 0.784979,-0.9809 0.956598,-1.4798 0.3404,-0.4908 0.418046,-0.9844 0.69186,-1.4773 0.401672,-0.5311 0.479226,-1.069 0.814204,-1.6029 0.5304,-0.7275 1.202686,-1.4487 1.715723,-2.1772 0.374168,-0.6327 0.880202,-1.2616 0.910785,-1.9029 0.222808,-0.5486 0.602995,-1.0934 0.64097,-1.6458 0.131457,-0.4814 0.507097,-0.958 0.529773,-1.4405 -9.63e-4,-0.466 8.34e-4,-0.9319 0.02833,-1.3977 0.0361,-0.8587 0.06717,-1.7175 0.102927,-2.5761 0.08984,-0.9168 0.187684,-1.8352 0.732464,-2.7444 0.608987,-1.0428 0.951156,-2.0882 1.051323,-3.1411 0.263093,-0.9508 0.781466,-1.8955 0.965399,-2.8475 0.182912,-0.7516 0.06839,-1.505 0.08154,-2.2577 0.01088,-0.7029 0.0295,-1.4058 0.0019,-2.1086 -0.03882,-0.7605 -0.135918,-1.522 -0.502591,-2.2782 -0.395498,-0.7419 -0.927522,-1.4789 -1.328967,-2.2206 -0.245863,-0.637 -0.491572,-1.2721 -0.595351,-1.9115 -0.262394,-0.6139 -0.764835,-1.2179 -1.109903,-1.8289 -0.338694,-0.541 -0.626064,-1.0843 -1.094415,-1.62 -0.326469,-0.5504 -0.944697,-1.0868 -1.266044,-1.6374 -0.55173,-0.7805 -1.032403,-1.5622 -1.397298,-2.349 -0.609806,-0.9428 -1.243532,-1.8847 -2.108859,-2.81643 -0.746498,-0.70724 -1.699593,-1.40014 -2.501626,-2.10391 -0.596676,-0.40511 -1.184575,-0.81034 -1.861835,-1.2084 -0.951137,-0.49485 -1.943974,-0.98526 -2.848952,-1.48518 -1.135725,-0.53467 -2.369216,-1.05696 -3.511758,-1.59088 0,0 9.443951,-1.26774 9.443951,-1.26774 z"
       inkscape:connector-curvature="0" />
    <rect
       style="fill:#008000;stroke:#000000;stroke-width:0;stroke-miterlimit:4;stroke-opacity:1;stroke-dasharray:none"
       id="rect3828-37-9"
       width="49.973347"
       height="26.729933"
       x="18.081646"
       y="985.94214"
       ry="0" />
    <rect
       style="fill:#ffffff;fill-opacity:1;stroke:#000000;stroke-width:1.23621154;stroke-miterlimit:4;stroke-opacity:1;stroke-dasharray:none"
       id="rect3001-0-6-3"
       width="19.059607"
       height="16.967695"
       x="44.431065"
       y="990.93939"
       ry="4.6486835" />
    <rect
       style="fill:#ffffff;fill-opacity:1;stroke:#000000;stroke-width:1.23621154;stroke-miterlimit:4;stroke-opacity:1;stroke-dasharray:none"
       id="rect3001-8-7"
       width="19.059607"
       height="16.967695"
       x="22.814682"
       y="990.59076"
       ry="4.6486835" />
    <rect
       style="fill:#800000;stroke:#000000;stroke-width:0;stroke-miterlimit:4;stroke-opacity:1;stroke-dasharray:none"
       id="rect3828-37-1"
       width="49.973347"
       height="26.729933"
       x="17.956043"
       y="1022.1888"
       ry="0" />
    <rect
       style="fill:#ffffff;fill-opacity:1;stroke:#000000;stroke-width:1.23621154;stroke-miterlimit:4;stroke-opacity:1;stroke-dasharray:none"
       id="rect3001-0-6-4"
       width="19.059607"
       height="16.967695"
       x="44.305454"
       y="1027.1858"
       ry="4.6486835" />
    <rect
       style="fill:#ffffff;fill-opacity:1;stroke:#000000;stroke-width:1.23621154;stroke-miterlimit:4;stroke-opacity:1;stroke-dasharray:none"
       id="rect3001-8-1"
       width="19.059607"
       height="16.967695"
       x="22.689077"
       y="1026.8373"
       ry="4.6486835" />
  </g>
</svg>
