<?xml version="1.0" encoding="UTF-8" standalone="no"?>
<!-- Created with Inkscape (http://www.inkscape.org/) -->

<svg
   xmlns:dc="http://purl.org/dc/elements/1.1/"
   xmlns:cc="http://creativecommons.org/ns#"
   xmlns:rdf="http://www.w3.org/1999/02/22-rdf-syntax-ns#"
   xmlns:svg="http://www.w3.org/2000/svg"
   xmlns="http://www.w3.org/2000/svg"
   xmlns:sodipodi="http://sodipodi.sourceforge.net/DTD/sodipodi-0.dtd"
   xmlns:inkscape="http://www.inkscape.org/namespaces/inkscape"
   width="82"
   height="70"
   id="svg2"
   version="1.1"
   inkscape:version="0.48.1 "
   sodipodi:docname="select.svg"
   inkscape:export-filename="C:\Users\Work\workspace\Scampi\src\Scampi\gui\ScaiOperators\src\main\webapp\images\operators\select.png"
   inkscape:export-xdpi="90"
   inkscape:export-ydpi="90">
  <defs
     id="defs4" />
  <sodipodi:namedview
     id="base"
     pagecolor="#ffffff"
     bordercolor="#666666"
     borderopacity="1.0"
     inkscape:pageopacity="0.0"
     inkscape:pageshadow="2"
     inkscape:zoom="5.3185439"
     inkscape:cx="8.360988"
     inkscape:cy="53.561213"
     inkscape:document-units="px"
     inkscape:current-layer="layer1"
     showgrid="false"
     inkscape:window-width="1920"
     inkscape:window-height="1018"
     inkscape:window-x="1358"
     inkscape:window-y="-8"
     inkscape:window-maximized="1" />
  <metadata
     id="metadata7">
    <rdf:RDF>
      <cc:Work
         rdf:about="">
        <dc:format>image/svg+xml</dc:format>
        <dc:type
           rdf:resource="http://purl.org/dc/dcmitype/StillImage" />
        <dc:title />
      </cc:Work>
    </rdf:RDF>
  </metadata>
  <g
     inkscape:label="Ebene 1"
     inkscape:groupmode="layer"
     id="layer1"
     transform="translate(0,-982.36218)">
    <rect
       style="fill:#008000;stroke:#000000;stroke-width:0;stroke-miterlimit:4;stroke-opacity:1;stroke-dasharray:none"
       id="rect3828"
       width="46.253262"
       height="21.622459"
       x="6.9916573"
       y="982.50464"
       ry="0" />
    <rect
       style="fill:#800000;stroke:#000000;stroke-width:0;stroke-miterlimit:4;stroke-opacity:1;stroke-dasharray:none"
       id="rect3828-5"
       width="46.44128"
       height="21.622459"
       x="6.8370066"
       y="1005.7253"
       ry="0" />
    <rect
       style="fill:#008000;stroke:#000000;stroke-width:0;stroke-miterlimit:4;stroke-opacity:1;stroke-dasharray:none"
       id="rect3828-7"
       width="42.994492"
       height="21.622459"
       x="22.186525"
       y="1030.7306"
       ry="0" />
    <rect
       style="fill:#ffffff;fill-opacity:1;stroke:#000000;stroke-width:1;stroke-miterlimit:4;stroke-opacity:1;stroke-dasharray:none"
       id="rect3001"
       width="15.417755"
       height="13.72556"
       x="12.82032"
       y="986.26508"
       ry="3.7604272" />
    <rect
       style="fill:#ffffff;fill-opacity:1;stroke:#000000;stroke-width:1;stroke-miterlimit:4;stroke-opacity:1;stroke-dasharray:none"
       id="rect3001-0"
       width="15.417755"
       height="13.72556"
       x="30.306309"
       y="986.54706"
       ry="3.7604272" />
    <rect
       style="fill:#ffffff;fill-opacity:1;stroke:#000000;stroke-width:1;stroke-miterlimit:4;stroke-opacity:1;stroke-dasharray:none"
       id="rect3001-0-9"
       width="15.417755"
       height="13.72556"
       x="12.947701"
       y="1009.2507"
       ry="3.7604272" />
    <rect
       style="fill:#ffffff;fill-opacity:1;stroke:#000000;stroke-width:1;stroke-miterlimit:4;stroke-opacity:1;stroke-dasharray:none"
       id="rect3001-3"
       width="15.417755"
       height="13.72556"
       x="30.186523"
       y="1009.2977"
       ry="3.7604272" />
    <path
       style="fill:#800000;fill-opacity:1;stroke:#000000;stroke-width:0;stroke-miterlimit:4;stroke-opacity:1;stroke-dasharray:none"
       id="path3945"
       d="m 47.973569,1014.299 c 0.550267,-0.074 1.090513,-0.2056 1.637005,-0.2997 0.451645,-0.058 0.903758,-0.07 1.357825,-0.073 0.370667,-0.031 0.733554,0 1.098927,-0.085 0.389747,-0.1047 0.796705,-0.1682 1.197747,-0.2195 0.411006,-0.061 0.833423,-0.093 1.249136,-0.084 0.38417,0 0.734793,-0.172 1.069226,-0.3421 0.471377,-0.2417 0.968562,-0.429 1.447296,-0.6571 0.411798,-0.1259 0.812817,-0.2763 1.198576,-0.4676 0.512877,-0.266 1.012004,-0.5576 1.511776,-0.8472 0.593795,-0.3781 1.220867,-0.6853 1.860185,-0.9766 0.47003,-0.2085 0.962718,-0.3555 1.431925,-0.5689 0.69357,-0.248 1.351526,-0.5825 2.002448,-0.9244 0.591585,-0.3143 1.168581,-0.6548 1.748394,-0.9901 0.609136,-0.3153 1.157324,-0.6876 1.640297,-1.1741 0.464527,-0.4531 0.885559,-0.946 1.386387,-1.3602 0.360294,-0.3616 0.747265,-0.6922 1.163822,-0.9867 0,0 -1.093079,2.5601 -1.093079,2.5601 l 0,0 c -0.399778,0.303 -0.767674,0.642 -1.136566,0.9814 -0.475355,0.4324 -0.901683,0.9147 -1.369734,1.3551 -0.51393,0.4659 -1.093782,0.8251 -1.703111,1.1548 -0.579085,0.338 -1.163213,0.6679 -1.758192,0.9772 -0.664411,0.336 -1.335812,0.6584 -2.026892,0.9365 -0.470732,0.1986 -0.961086,0.3454 -1.42444,0.5616 -0.634086,0.287 -1.24349,0.6163 -1.833981,0.9856 -0.506434,0.2946 -1.0121,0.5923 -1.537727,0.8519 -0.391201,0.181 -0.800884,0.3082 -1.201545,0.4657 -0.482186,0.2168 -0.976382,0.4081 -1.442654,0.6588 -0.375464,0.1742 -0.765745,0.3186 -1.187413,0.2973 -0.404936,0.01 -0.810862,0.023 -1.209866,0.098 -0.398705,0.068 -0.799339,0.1239 -1.190869,0.2271 -0.380093,0.055 -0.762482,0.042 -1.145338,0.062 -0.437194,-0.01 -0.873738,0.021 -1.30684,0.084 -0.552153,0.1038 -1.103932,0.2096 -1.657283,0.3069 0,0 1.224714,-2.5078 1.224714,-2.5078 z"
       inkscape:connector-curvature="0" />
    <path
       style="fill:#008000;fill-opacity:1;stroke:#000000;stroke-width:0;stroke-miterlimit:4;stroke-opacity:1;stroke-dasharray:none"
       id="path3947"
       d="m 51.125756,997.35773 c 0.518489,0.009 1.037167,0.006 1.555742,0.006 0.479024,-0.002 0.958049,-0.002 1.437077,-0.002 0.440689,-0.009 0.874764,-0.005 1.311194,0.0445 0.501773,0.0129 0.967423,0.14819 1.441201,0.26864 0.314633,0.1 0.65306,0.1083 0.979023,0.16005 0.120791,0.0192 0.465113,0.10636 0.570557,0.13217 0.93942,0.26937 1.880099,0.53173 2.840889,0.74562 0.744715,0.19709 1.531418,0.29744 2.255686,0.54322 0.651523,0.23008 1.294055,0.48923 1.913113,0.77587 0.718791,0.3868 1.410524,0.8018 2.153306,1.1578 0.229446,0.1373 0.497504,0.226 0.719514,0.3724 0.179717,0.1185 0.348118,0.2549 0.525293,0.3769 0.365694,0.2303 0.751456,0.4371 1.142875,0.636 0.0587,0.032 0.121755,0.06 0.176113,0.097 0.123662,0.084 0.229246,0.1854 0.343222,0.2786 0.191118,0.1563 0.386067,0.3083 0.574986,0.4665 0.446703,0.3705 0.94985,0.6923 1.394658,1.0635 0.384517,0.3754 0.871281,0.6635 1.279503,1.0178 0.379375,0.3338 0.719591,0.6977 1.040462,1.0709 0.309735,0.3569 0.591343,0.7176 0.750778,1.1382 0.08661,0.2865 0.119684,0.583 0.220941,0.8666 0.115243,0.2292 0.146691,0.4738 0.19487,0.716 0.035,0.1411 0.06472,0.2829 0.09251,0.425 0,0 -2.009442,0.8779 -2.009442,0.8779 l 0,0 c -0.02496,-0.1407 -0.05152,-0.2812 -0.0893,-0.4201 -0.05772,-0.2331 -0.07318,-0.4738 -0.186181,-0.6963 -0.105742,-0.2838 -0.141809,-0.5815 -0.210969,-0.872 -0.137326,-0.4052 -0.406747,-0.7502 -0.70369,-1.0896 -0.315627,-0.3653 -0.654897,-0.7188 -1.025686,-1.0467 -0.409968,-0.3509 -0.885173,-0.6475 -1.275827,-1.0154 -0.446416,-0.3683 -0.9362,-0.7004 -1.388541,-1.0641 -0.350041,-0.2744 -0.68619,-0.5719 -1.082807,-0.7989 -0.397753,-0.2045 -0.783465,-0.4249 -1.155285,-0.6603 -0.386543,-0.2641 -0.761283,-0.5355 -1.203968,-0.737 -0.729044,-0.3719 -1.424132,-0.7852 -2.159734,-1.1481 -0.611079,-0.2835 -1.244319,-0.5409 -1.896742,-0.7523 -0.724939,-0.2108 -1.471841,-0.36596 -2.207477,-0.54878 -0.965783,-0.22383 -1.918048,-0.48186 -2.876352,-0.72541 -0.517844,-0.10818 -1.05049,-0.15431 -1.559192,-0.29351 -0.468385,-0.11838 -0.936866,-0.21428 -1.428651,-0.23609 -0.429278,-0.0389 -0.860432,-0.027 -1.291732,-0.0277 -0.476674,-4.4e-4 -0.953342,1.7e-4 -1.430012,-0.002 -0.525623,4.2e-4 -1.051339,-0.002 -1.576882,0.006 0,0 1.844964,-1.1071 1.844964,-1.1071 z"
       inkscape:connector-curvature="0" />
    <path
       style="fill:#008000;fill-opacity:1;stroke:#000000;stroke-width:0;stroke-miterlimit:4;stroke-opacity:1;stroke-dasharray:none"
       id="path3949"
       d="m 76.192084,1007.871 c 0.113872,0.5981 0.342904,1.1725 0.488958,1.7652 0.13786,0.607 0.123832,1.2302 0.134007,1.8464 0.04318,0.747 -0.06014,1.4876 -0.185438,2.2244 -0.136524,0.6696 -0.50507,1.2617 -0.847728,1.8609 -0.259203,0.52 -0.514378,1.0414 -0.776377,1.5603 -0.269083,0.4766 -0.573763,0.933 -0.952502,1.3476 -0.293502,0.2929 -0.62917,0.5544 -0.964215,0.8106 -0.485566,0.3131 -0.910509,0.6891 -1.367553,1.0322 -1.356635,0.7363 -2.729315,1.5927 -4.269128,2.0292 -0.176408,0.1126 -0.397199,0.1433 -0.589786,0.221 -0.07096,0.029 -0.270155,0.138 -0.202341,0.1039 2.600482,-1.307 3.380145,-1.7604 2.33171,-1.1581 -1.313144,1.0707 -2.852786,1.367 -4.341278,2.0084 -0.471474,0.2237 -1.020165,0.199 -1.520032,0.3273 -0.06723,0.016 -0.13613,0.028 -0.201671,0.048 -0.457843,0.1459 0.108686,0.01 -0.408515,0.1352 -0.25668,0.063 -0.517306,0.093 -0.77481,0.1535 -0.558229,0.093 -1.110702,0.2042 -1.667718,0.3038 -0.544757,0.059 -1.087656,0.091 -1.629241,0.1694 -0.64454,0.045 -1.280573,0.1311 -1.919665,0.2154 -0.710423,0.095 -1.373566,0.3211 -2.039808,0.5477 -0.63256,0.2149 -1.288346,0.3619 -1.938436,0.5279 -0.260792,0.1002 -0.536354,0.1657 -0.79626,0.2678 -0.08984,0.035 -0.349546,0.159 -0.264446,0.1155 4.499681,-2.3013 3.045545,-1.544 2.171359,-1.0876 -0.514503,0.2772 -0.98435,0.6111 -1.494697,0.8943 -1.1357,0.6891 -2.360837,1.2302 -3.552901,1.8514 -0.835224,0.4353 1.680759,-0.8548 2.522609,-1.28 0.129971,-0.066 -0.256052,0.1371 -0.383748,0.2062 -0.404652,0.2123 -0.69589,0.5352 -0.98717,0.8542 -0.39137,0.3846 -0.789794,0.764 -1.184575,1.1463 -0.455784,0.4647 -0.845663,0.9729 -1.253939,1.4692 -0.340439,0.3813 -0.622615,0.7985 -0.871065,1.2307 -0.20145,0.4062 -0.336307,0.8314 -0.467026,1.2581 -0.182454,0.3994 -0.231044,0.8208 -0.266173,1.2461 -0.04547,0.7605 -0.01897,1.5219 -0.06248,2.2823 -0.0596,0.8461 -0.227563,1.6814 -0.315632,2.5252 -0.043,0.6005 -0.145222,1.1957 -0.209799,1.7945 0,0 -2.861095,1.2577 -2.861095,1.2577 l 0,0 c 0.06526,-0.6 0.160859,-1.1966 0.216237,-1.797 0.09166,-0.8421 0.251414,-1.6757 0.329526,-2.5183 0.04736,-0.756 0.01522,-1.5135 0.0369,-2.2704 0.01492,-0.4403 0.0245,-0.8915 0.212459,-1.3061 0.182215,-0.4188 0.252323,-0.8763 0.460263,-1.29 0.21075,-0.4641 0.520231,-0.8924 0.85354,-1.2951 0.221445,-0.2418 0.389944,-0.5027 0.595635,-0.7529 0.206711,-0.2514 0.472463,-0.4659 0.64759,-0.7388 0.390657,-0.3771 0.755465,-0.775 1.180042,-1.1231 0.287045,-0.3252 0.558734,-0.6918 0.943898,-0.9271 0.920024,-0.648 3.130434,-1.635 3.364524,-1.7537 0.830343,-0.4209 -1.653276,0.8533 -2.482247,1.2764 -0.187724,0.096 0.755203,-0.3981 0.542466,-0.317 0.506927,-0.2931 1.012149,-0.5806 1.495252,-0.9046 1.430752,-0.7577 2.811241,-1.6356 4.425108,-2.0462 0.643274,-0.1654 1.291144,-0.3169 1.913444,-0.5397 0.678852,-0.225 1.368506,-0.4166 2.08949,-0.5046 0.640068,-0.084 1.282513,-0.1431 1.923501,-0.2201 0.539544,-0.069 1.086828,-0.082 1.62116,-0.1829 0.552439,-0.1062 1.109737,-0.1897 1.658547,-0.3099 0.473117,-0.094 0.927926,-0.2306 1.396349,-0.3381 0.506964,-0.074 1.012951,-0.1528 1.472486,-0.3695 1.180259,-0.4499 3.748519,-1.4804 -1.180365,0.7856 1.322463,-0.6693 2.564646,-1.4806 4.001853,-1.9433 0.246312,-0.087 0.488651,-0.1796 0.728182,-0.2801 0.08437,-0.035 0.331827,-0.1513 0.251372,-0.1094 -2.350462,1.2243 -3.382893,1.6528 -2.233175,1.1673 0.483372,-0.315 0.878156,-0.714 1.361603,-1.0284 0.355583,-0.232 0.643195,-0.5196 0.991669,-0.7546 0.111973,-0.1217 0.238141,-0.2329 0.348234,-0.356 0.25694,-0.2871 0.422092,-0.6268 0.644685,-0.9332 0.289285,-0.5089 0.521288,-1.0471 0.780585,-1.5684 0.326379,-0.5864 0.716636,-1.1488 0.902633,-1.7881 0.134067,-0.7211 0.238043,-1.4456 0.200481,-2.1783 -0.0052,-0.5985 -0.0068,-1.2011 -0.117605,-1.7932 -0.129918,-0.6007 -0.338153,-1.1813 -0.517061,-1.7712 0,0 2.859335,-1.3326 2.859335,-1.3326 z"
       inkscape:connector-curvature="0" />
    <rect
       style="fill:#000000;stroke:#000000;stroke-width:0;stroke-miterlimit:4;stroke-opacity:1;stroke-dasharray:none"
       id="rect3828-7-7"
       width="17.799625"
       height="17.485989"
       x="63.916012"
       y="994.16943"
       ry="0" />
    <rect
       style="fill:#ffffff;fill-opacity:1;stroke:#000000;stroke-width:1;stroke-miterlimit:4;stroke-opacity:1;stroke-dasharray:none"
       id="rect3001-0-0"
       width="15.417755"
       height="13.72556"
       x="27.545135"
       y="1035.0081"
       ry="3.7604272" />
    <rect
       style="fill:#ffffff;fill-opacity:1;stroke:#000000;stroke-width:1;stroke-miterlimit:4;stroke-opacity:1;stroke-dasharray:none"
       id="rect3001-0-5"
       width="15.417755"
       height="13.72556"
       x="45.219143"
       y="1034.8201"
       ry="3.7604272" />
  </g>
</svg>
