<?xml version="1.0" encoding="UTF-8" standalone="no"?>
<!-- Created with Inkscape (http://www.inkscape.org/) -->

<svg
   xmlns:dc="http://purl.org/dc/elements/1.1/"
   xmlns:cc="http://creativecommons.org/ns#"
   xmlns:rdf="http://www.w3.org/1999/02/22-rdf-syntax-ns#"
   xmlns:svg="http://www.w3.org/2000/svg"
   xmlns="http://www.w3.org/2000/svg"
   xmlns:sodipodi="http://sodipodi.sourceforge.net/DTD/sodipodi-0.dtd"
   xmlns:inkscape="http://www.inkscape.org/namespaces/inkscape"
   width="82"
   height="70"
   id="svg2"
   version="1.1"
   inkscape:version="0.48.1 "
   sodipodi:docname="split.svg"
   inkscape:export-filename="C:\Users\Work\workspace\Scampi\src\Scampi\gui\ScaiOperators\src\main\webapp\images\operators\split.png"
   inkscape:export-xdpi="90"
   inkscape:export-ydpi="90">
  <defs
     id="defs4" />
  <sodipodi:namedview
     id="base"
     pagecolor="#ffffff"
     bordercolor="#666666"
     borderopacity="1.0"
     inkscape:pageopacity="0.0"
     inkscape:pageshadow="2"
     inkscape:zoom="5.3185439"
     inkscape:cx="8.360988"
     inkscape:cy="53.561213"
     inkscape:document-units="px"
     inkscape:current-layer="layer1"
     showgrid="false"
     inkscape:window-width="1920"
     inkscape:window-height="1018"
     inkscape:window-x="1358"
     inkscape:window-y="-8"
     inkscape:window-maximized="1" />
  <metadata
     id="metadata7">
    <rdf:RDF>
      <cc:Work
         rdf:about="">
        <dc:format>image/svg+xml</dc:format>
        <dc:type
           rdf:resource="http://purl.org/dc/dcmitype/StillImage" />
        <dc:title />
      </cc:Work>
    </rdf:RDF>
  </metadata>
  <g
     inkscape:label="Ebene 1"
     inkscape:groupmode="layer"
     id="layer1"
     transform="translate(0,-982.36218)">
    <rect
       style="fill:#800000;stroke:#000000;stroke-width:0;stroke-miterlimit:4;stroke-opacity:1;stroke-dasharray:none"
       id="rect3828-37"
       width="32.247204"
       height="17.248505"
       x="8.5898418"
       y="1030.1582"
       ry="0" />
    <rect
       style="fill:#008000;stroke:#000000;stroke-width:0;stroke-miterlimit:4;stroke-opacity:1;stroke-dasharray:none"
       id="rect3828-37-9"
       width="32.247204"
       height="17.248505"
       x="43.07354"
       y="1030.4026"
       ry="0" />
    <path
       style="fill:#800000;fill-opacity:1;stroke:#000000;stroke-width:0;stroke-miterlimit:4;stroke-opacity:1;stroke-dasharray:none"
       id="path4049"
       d="m 51.19448,1015.0739 c -0.815813,0.066 -1.602936,0.1885 -2.400877,0.2966 -1.825171,0.2818 -3.874461,0.9965 1.565231,-0.6672 -12.874014,3.9829 2.281284,-0.705 -1.160532,0.3685 -1.305112,0.4071 -2.613596,0.811 -3.920619,1.2163 -0.564508,0.1751 -0.293825,0.099 -0.886018,0.2464 0.28371,-0.1075 -1.109255,0.321 -0.836867,0.2359 7.364611,-2.3011 3.611809,-1.1388 2.723366,-0.8392 -0.126794,0.042 -0.251747,0.087 -0.377592,0.1306 -0.118285,0.041 -0.236537,0.082 -0.354803,0.1229 -1.542997,0.5551 -3.139318,1.0315 -4.770364,1.5261 -0.184508,0.056 -0.395274,0.082 -0.588851,0.1277 -1.421532,0.391 -4.365593,1.3238 1.672717,-0.5481 -8.907881,2.7957 -1.850506,0.5755 -0.705409,0.2343 0.138644,-0.041 -0.256998,0.1 -0.383796,0.1513 -0.356183,0.1441 -0.697536,0.2969 -1.038358,0.4513 -0.588401,0.2682 -1.17472,0.538 -1.758988,0.8089 -0.496342,0.205 -0.97472,0.4115 -1.387669,0.6655 -0.458279,0.2718 -0.855767,0.5706 -1.295679,0.8507 -0.388145,0.2682 -0.745327,0.5486 -1.114125,0.8246 -0.46801,0.3234 -0.829476,0.6793 -1.145262,1.0512 -0.338154,0.3857 -0.70986,0.7621 -1.054447,1.1461 -0.248443,0.2711 -0.538015,0.5292 -0.790152,0.7993 -0.188873,0.2645 -0.400447,0.5224 -0.623343,0.7786 -0.218806,0.3012 -0.346923,0.617 -0.484723,0.9308 -0.149005,0.3192 -0.296022,0.6391 -0.429358,0.9604 -0.114338,0.3744 -0.203752,0.7508 -0.308433,1.1262 -0.09246,0.4234 -0.140485,0.8471 -0.300953,1.2651 -0.162406,0.3573 -0.317965,0.7149 -0.512993,1.0675 -0.291232,0.4193 -0.500212,0.8461 -0.623894,1.2887 -0.12912,0.5809 -0.481516,1.1357 -0.707306,1.7058 -0.215952,0.6658 -0.478025,1.3248 -0.788129,1.9796 -0.270557,0.5032 -0.561893,1.0026 -0.729378,1.5195 -0.131725,0.3137 -0.222344,0.6329 -0.386323,0.9423 -0.160982,0.2825 -0.181973,0.5791 -0.304266,0.8658 -0.07862,0.2455 -0.23865,0.478 -0.364219,0.7166 -0.04257,0.1229 -0.09851,0.2431 -0.16652,0.3624 0,0 -3.722217,0.9496 -3.722217,0.9496 l 0,0 c 0.07181,-0.1154 0.174438,-0.2237 0.180855,-0.3481 0.09414,-0.2465 0.295908,-0.4697 0.3648,-0.719 0.146962,-0.2875 0.18716,-0.5798 0.305132,-0.8714 0.151295,-0.3071 0.284316,-0.6145 0.418076,-0.9252 0.158154,-0.5286 0.455857,-1.0376 0.75811,-1.5467 0.299595,-0.6511 0.609586,-1.2998 0.778397,-1.9658 0.203542,-0.5687 0.57377,-1.1144 0.713774,-1.6898 0.09134,-0.453 0.264464,-0.8942 0.571173,-1.3198 0.220078,-0.3448 0.351615,-0.7016 0.531073,-1.053 0.205061,-0.4084 0.244294,-0.8279 0.317121,-1.2477 0.100075,-0.3791 0.205394,-0.7562 0.289944,-1.1362 0.117091,-0.3262 0.274611,-0.6467 0.415788,-0.97 0.171725,-0.3153 0.266962,-0.6432 0.450677,-0.9572 0.189222,-0.2668 0.486943,-0.5064 0.620046,-0.7863 0.226484,-0.2838 0.523591,-0.5426 0.799296,-0.8114 0.377756,-0.372 0.693974,-0.7634 1.064521,-1.1381 0.324443,-0.375 0.620345,-0.7595 1.106445,-1.085 0.356851,-0.284 0.7434,-0.5563 1.098226,-0.8398 0.426199,-0.2878 0.863445,-0.5703 1.297963,-0.8551 0.198487,-0.13 0.392278,-0.2929 0.626681,-0.4046 0.224605,-0.1071 0.516761,-0.1802 0.72858,-0.2983 0.617086,-0.254 1.180841,-0.5439 1.780345,-0.8104 0.347062,-0.1542 0.687555,-0.3087 1.039953,-0.4591 0.124113,-0.053 0.230272,-0.1191 0.365127,-0.1637 1.423302,-0.4708 7.936523,-2.5174 0.698545,-0.2377 1.756735,-0.5563 3.492598,-1.1652 5.3469,-1.6324 1.302775,-0.3027 3.009098,-0.9034 -2.637477,0.8686 -0.106199,0.034 0.21201,-0.067 0.314554,-0.1036 0.109981,-0.039 0.215097,-0.082 0.322645,-0.1234 0.113809,-0.04 0.227629,-0.079 0.341443,-0.1189 1.921069,-0.626 3.789651,-1.31 5.827698,-1.8237 1.268949,-0.3556 3.41439,-1.0623 -2.171475,0.7036 -0.134581,0.042 0.273203,-0.081 0.407865,-0.1238 1.290528,-0.407 2.588037,-0.8078 3.867642,-1.2248 1.033693,-0.3369 -2.086548,0.6562 -3.129823,0.9843 2.08388,-0.6422 3.391767,-1.1895 5.499918,-1.4764 0.79945,-0.1123 1.609292,-0.1941 2.41147,-0.2999 0,0 -3.260859,1.3512 -3.260859,1.3512 z"
       inkscape:connector-curvature="0" />
    <path
       style="fill:#008000;fill-opacity:1;stroke:#000000;stroke-width:0;stroke-miterlimit:4;stroke-opacity:1;stroke-dasharray:none"
       id="path4051"
       d="m 57.273158,994.43282 c 0.223193,-0.0346 0.448816,-0.10377 0.676459,-0.11384 0.254509,-0.0113 0.524394,0.0374 0.775706,0.0672 0.402883,0.0638 0.685926,0.28681 0.930705,0.55991 0.267212,0.2564 0.522002,0.52095 0.773931,0.78899 0.269207,0.30618 0.499651,0.63631 0.793904,0.92527 0.235957,0.29087 0.461222,0.58653 0.642358,0.90664 0.224288,0.47952 0.396066,0.97699 0.58228,1.46872 0.21031,0.50555 0.365242,1.02649 0.544747,1.54079 0.126449,0.3959 0.209716,0.7978 0.34243,1.1922 0.143114,0.4255 0.274884,0.8528 0.417911,1.2784 0.129335,0.404 0.175833,0.8222 0.269558,1.2325 0.123343,0.3334 0.259356,0.6591 0.342925,1.003 0.06903,0.4171 0.14783,0.8328 0.224408,1.2489 0.103702,0.5912 0.1099,1.1899 0.154083,1.7855 0.02774,0.5771 0.135555,1.1466 0.220581,1.7183 0.06295,0.4314 0.07457,0.867 0.08175,1.3014 -0.0015,0.5938 -0.0075,1.1876 -0.0073,1.7814 -0.0035,0.7202 -0.0043,1.4405 -0.0056,2.1608 0.01208,0.826 -0.03092,1.6514 -0.108435,2.4744 -0.07333,0.8481 -0.262426,1.6828 -0.371389,2.5273 -0.116702,0.7774 -0.196715,1.5579 -0.237441,2.341 -0.01995,0.6002 -0.01733,1.1991 -0.06826,1.798 -0.05755,0.7756 -0.205338,1.5426 -0.299657,2.315 -0.07649,0.6012 -0.181811,1.1986 -0.28641,1.7962 -0.127081,0.5088 -0.180616,1.0264 -0.250097,1.5425 -0.08277,0.3825 -0.200753,0.7567 -0.262856,1.1428 -0.04261,0.3409 -0.03618,0.6834 -0.08478,1.0237 -0.0633,0.374 -0.161675,0.7409 -0.210698,1.1169 -0.04423,0.3937 -0.05028,0.7894 -0.05532,1.1846 10e-4,0.3756 -3.3e-5,0.7512 7.34e-4,1.1267 -0.0049,0.3243 0.0182,0.6493 -0.0073,0.973 -0.06014,0.3111 -0.100513,0.6232 -0.120675,0.9383 -0.02219,0.2985 -0.0041,0.5982 -0.02758,0.8964 -0.04788,0.2299 -0.09421,0.4589 -0.117285,0.692 -0.01129,0.2627 -0.08373,0.5189 -0.124518,0.7786 -0.02088,0.1721 -0.01182,0.086 -0.02716,0.2585 0,0 -1.988389,0.8755 -1.988389,0.8755 l 0,0 c 0.01189,-0.179 0.0047,-0.09 0.0216,-0.2685 0.03314,-0.2582 0.105465,-0.5108 0.127963,-0.7689 0.016,-0.2364 0.04221,-0.4724 0.111723,-0.7021 0.06734,-0.2896 0.0076,-0.593 0.04407,-0.8865 0.01742,-0.3169 0.03335,-0.635 0.109566,-0.9461 0.05664,-0.3155 0.0097,-0.6391 0.02692,-0.9573 -3.43e-4,-0.3764 -0.0039,-0.7529 7.87e-4,-1.1293 0.0018,-0.4009 0.0037,-0.8025 0.04671,-1.202 0.04149,-0.3778 0.120574,-0.7469 0.198983,-1.1192 0.05988,-0.3397 0.06009,-0.6796 0.08883,-1.0221 0.04809,-0.3914 0.156316,-0.7709 0.277195,-1.1495 0.07917,-0.516 0.106095,-1.0385 0.246908,-1.5466 0.103242,-0.5997 0.231459,-1.1958 0.312751,-1.7986 0.09802,-0.7675 0.245091,-1.5307 0.289817,-2.3027 0.04734,-0.5985 0.05767,-1.1972 0.07736,-1.7969 0.04581,-0.7891 0.126093,-1.5752 0.246851,-2.3583 0.102776,-0.8439 0.287769,-1.6766 0.372314,-2.5221 0.07896,-0.8168 0.128908,-1.6366 0.108329,-2.4566 -10e-4,-0.7189 -0.0014,-1.4379 -0.0035,-2.1569 0.0013,-0.59 -7.97e-4,-1.18 -0.01104,-1.77 -0.0058,-0.4289 -0.0128,-0.8584 -0.0663,-1.2851 -0.07296,-0.5776 -0.178471,-1.1518 -0.211304,-1.733 -0.05347,-0.5876 -0.0492,-1.1798 -0.15803,-1.7632 -0.08166,-0.4121 -0.165364,-0.8238 -0.232634,-1.2378 -0.0748,-0.347 -0.21292,-0.6712 -0.34418,-1.0036 -0.08881,-0.4066 -0.125633,-0.8205 -0.24882,-1.2212 -0.145354,-0.4247 -0.275728,-0.8518 -0.424803,-1.2753 -0.134073,-0.3953 -0.223052,-0.7952 -0.33168,-1.1962 -0.174773,-0.514 -0.32848,-1.0339 -0.537411,-1.53825 -0.183131,-0.48249 -0.358702,-0.96792 -0.57762,-1.43915 -0.175838,-0.30468 -0.402248,-0.58108 -0.625453,-0.86017 -0.28129,-0.2986 -0.511565,-0.62924 -0.788198,-0.93066 -0.258773,-0.26545 -0.513371,-0.53313 -0.784424,-0.78913 -0.219694,-0.23722 -0.470361,-0.40389 -0.827084,-0.43997 -0.484646,-0.0487 -0.950083,-0.0285 -1.414288,0.11953 0,0 1.764849,-1.19415 1.764849,-1.19415 z"
       inkscape:connector-curvature="0" />
    <rect
       style="fill:#ffffff;fill-opacity:1;stroke:#000000;stroke-width:0.79771245;stroke-miterlimit:4;stroke-opacity:1;stroke-dasharray:none"
       id="rect3001-0-6"
       width="12.298935"
       height="10.94905"
       x="25.592802"
       y="1033.3828"
       ry="2.9997396" />
    <rect
       style="fill:#ffffff;fill-opacity:1;stroke:#000000;stroke-width:0.79771245;stroke-miterlimit:4;stroke-opacity:1;stroke-dasharray:none"
       id="rect3001-8"
       width="12.298935"
       height="10.94905"
       x="11.644014"
       y="1033.158"
       ry="2.9997396" />
    <rect
       style="fill:#ffffff;fill-opacity:1;stroke:#000000;stroke-width:0.79771245;stroke-miterlimit:4;stroke-opacity:1;stroke-dasharray:none"
       id="rect3001-0-6-3"
       width="12.298935"
       height="10.94905"
       x="60.076504"
       y="1033.6272"
       ry="2.9997396" />
    <rect
       style="fill:#ffffff;fill-opacity:1;stroke:#000000;stroke-width:0.79771245;stroke-miterlimit:4;stroke-opacity:1;stroke-dasharray:none"
       id="rect3001-8-7"
       width="12.298935"
       height="10.94905"
       x="46.127712"
       y="1033.4022"
       ry="2.9997396" />
    <rect
       style="fill:#008000;stroke:#000000;stroke-width:0;stroke-miterlimit:4;stroke-opacity:1;stroke-dasharray:none"
       id="rect3828-3"
       width="32.247204"
       height="17.248505"
       x="25.539568"
       y="986.57971"
       ry="0" />
    <rect
       style="fill:#ffffff;fill-opacity:1;stroke:#000000;stroke-width:0.79771245;stroke-miterlimit:4;stroke-opacity:1;stroke-dasharray:none"
       id="rect3001-0-4"
       width="12.298935"
       height="10.94905"
       x="42.54253"
       y="989.80438"
       ry="2.9997396" />
    <rect
       style="fill:#ffffff;fill-opacity:1;stroke:#000000;stroke-width:0.79771245;stroke-miterlimit:4;stroke-opacity:1;stroke-dasharray:none"
       id="rect3001-59"
       width="12.298935"
       height="10.94905"
       x="28.59374"
       y="989.57947"
       ry="2.9997396" />
    <rect
       style="fill:#800000;stroke:#000000;stroke-width:0;stroke-miterlimit:4;stroke-opacity:1;stroke-dasharray:none"
       id="rect3828-34"
       width="32.247204"
       height="17.248505"
       x="25.689554"
       y="1005.0281"
       ry="0" />
    <rect
       style="fill:#ffffff;fill-opacity:1;stroke:#000000;stroke-width:0.79771245;stroke-miterlimit:4;stroke-opacity:1;stroke-dasharray:none"
       id="rect3001-0-0"
       width="12.298935"
       height="10.94905"
       x="42.692516"
       y="1008.2529"
       ry="2.9997396" />
    <rect
       style="fill:#ffffff;fill-opacity:1;stroke:#000000;stroke-width:0.79771245;stroke-miterlimit:4;stroke-opacity:1;stroke-dasharray:none"
       id="rect3001-2"
       width="12.298935"
       height="10.94905"
       x="28.743731"
       y="1008.0278"
       ry="2.9997396" />
  </g>
</svg>
