<?xml version="1.0" encoding="UTF-8" standalone="no"?>
<!-- Created with Inkscape (http://www.inkscape.org/) -->

<svg
   xmlns:dc="http://purl.org/dc/elements/1.1/"
   xmlns:cc="http://creativecommons.org/ns#"
   xmlns:rdf="http://www.w3.org/1999/02/22-rdf-syntax-ns#"
   xmlns:svg="http://www.w3.org/2000/svg"
   xmlns="http://www.w3.org/2000/svg"
   xmlns:sodipodi="http://sodipodi.sourceforge.net/DTD/sodipodi-0.dtd"
   xmlns:inkscape="http://www.inkscape.org/namespaces/inkscape"
   width="82"
   height="70"
   id="svg2"
   version="1.1"
   inkscape:version="0.48.1 "
   sodipodi:docname="union.svg"
   inkscape:export-filename="C:\Users\Work\workspace\Scampi\src\Scampi\gui\ScaiOperators\src\main\webapp\images\operators\union.png"
   inkscape:export-xdpi="90"
   inkscape:export-ydpi="90">
  <defs
     id="defs4" />
  <sodipodi:namedview
     id="base"
     pagecolor="#ffffff"
     bordercolor="#666666"
     borderopacity="1.0"
     inkscape:pageopacity="0.0"
     inkscape:pageshadow="2"
     inkscape:zoom="5.3185439"
     inkscape:cx="8.360988"
     inkscape:cy="53.561213"
     inkscape:document-units="px"
     inkscape:current-layer="layer1"
     showgrid="false"
     inkscape:window-width="1920"
     inkscape:window-height="1018"
     inkscape:window-x="1358"
     inkscape:window-y="-8"
     inkscape:window-maximized="1" />
  <metadata
     id="metadata7">
    <rdf:RDF>
      <cc:Work
         rdf:about="">
        <dc:format>image/svg+xml</dc:format>
        <dc:type
           rdf:resource="http://purl.org/dc/dcmitype/StillImage" />
        <dc:title />
      </cc:Work>
    </rdf:RDF>
  </metadata>
  <g
     inkscape:label="Ebene 1"
     inkscape:groupmode="layer"
     id="layer1"
     transform="translate(0,-982.36218)">
    <rect
       style="fill:#008000;stroke:#000000;stroke-width:0;stroke-miterlimit:4;stroke-opacity:1;stroke-dasharray:none"
       id="rect3828-37"
       width="31.126556"
       height="16.64909"
       x="12.965884"
       y="985.02026"
       ry="0" />
    <rect
       style="fill:#ffffff;fill-opacity:1;stroke:#000000;stroke-width:0.76999056;stroke-miterlimit:4;stroke-opacity:1;stroke-dasharray:none"
       id="rect3001-0-6"
       width="11.871526"
       height="10.568552"
       x="29.377964"
       y="988.13281"
       ry="2.8954935" />
    <rect
       style="fill:#ffffff;fill-opacity:1;stroke:#000000;stroke-width:0.76999056;stroke-miterlimit:4;stroke-opacity:1;stroke-dasharray:none"
       id="rect3001-8"
       width="11.871526"
       height="10.568552"
       x="15.913918"
       y="987.91571"
       ry="2.8954935" />
    <rect
       style="fill:#008000;stroke:#000000;stroke-width:0;stroke-miterlimit:4;stroke-opacity:1;stroke-dasharray:none"
       id="rect3828-37-9"
       width="31.126556"
       height="16.64909"
       x="44.711235"
       y="989.87604"
       ry="0" />
    <rect
       style="fill:#ffffff;fill-opacity:1;stroke:#000000;stroke-width:0.76999056;stroke-miterlimit:4;stroke-opacity:1;stroke-dasharray:none"
       id="rect3001-0-6-3"
       width="11.871526"
       height="10.568552"
       x="61.123318"
       y="992.98865"
       ry="2.8954935" />
    <rect
       style="fill:#ffffff;fill-opacity:1;stroke:#000000;stroke-width:0.76999056;stroke-miterlimit:4;stroke-opacity:1;stroke-dasharray:none"
       id="rect3001-8-7"
       width="11.871526"
       height="10.568552"
       x="47.659271"
       y="992.77148"
       ry="2.8954935" />
    <rect
       style="fill:#008000;stroke:#000000;stroke-width:0;stroke-miterlimit:4;stroke-opacity:1;stroke-dasharray:none"
       id="rect3828-37-1"
       width="31.126556"
       height="16.64909"
       x="27.837986"
       y="1031.9436"
       ry="0" />
    <rect
       style="fill:#ffffff;fill-opacity:1;stroke:#000000;stroke-width:0.76999056;stroke-miterlimit:4;stroke-opacity:1;stroke-dasharray:none"
       id="rect3001-8-1"
       width="11.871526"
       height="10.568552"
       x="30.786018"
       y="1034.839"
       ry="2.8954935" />
    <rect
       style="fill:#008000;stroke:#000000;stroke-width:0;stroke-miterlimit:4;stroke-opacity:1;stroke-dasharray:none"
       id="rect3828-37-9-0"
       width="31.126556"
       height="16.64909"
       x="28.127537"
       y="1013.7018"
       ry="0" />
    <rect
       style="fill:#ffffff;fill-opacity:1;stroke:#000000;stroke-width:0.76999056;stroke-miterlimit:4;stroke-opacity:1;stroke-dasharray:none"
       id="rect3001-0-6-3-5"
       width="11.871526"
       height="10.568552"
       x="44.539616"
       y="1016.8146"
       ry="2.8954935" />
    <rect
       style="fill:#ffffff;fill-opacity:1;stroke:#000000;stroke-width:0.76999056;stroke-miterlimit:4;stroke-opacity:1;stroke-dasharray:none"
       id="rect3001-8-7-8"
       width="11.871526"
       height="10.568552"
       x="31.075565"
       y="1016.5974"
       ry="2.8954935" />
    <path
       style="fill:#008000;fill-opacity:1;stroke:#000000;stroke-width:0;stroke-miterlimit:4;stroke-opacity:1;stroke-dasharray:none"
       id="path4135"
       d="m 64.857962,1004.1154 c 0.08497,0.5725 0.170775,1.1448 0.225955,1.7185 0.07702,0.9812 0.07588,1.9639 0.07759,2.9459 -0.0195,1.2254 0.208996,2.4471 0.44964,3.6629 0.262837,1.5273 0.52399,3.0528 0.93703,4.5692 0.386264,1.3868 0.852561,2.766 1.201373,4.1563 0.218821,1.0321 0.264697,2.0736 0.347607,3.1117 0.06596,0.9853 0.101463,1.9713 0.111696,2.9573 -0.0072,0.9259 -0.05522,1.8528 -0.147009,2.7773 -0.0187,0.7166 -0.313287,1.4028 -0.725479,2.0733 -0.521529,0.8886 -0.873153,1.8062 -1.323455,2.7071 -0.362187,0.654 -0.86502,1.2777 -1.348311,1.9035 -0.425567,0.5886 -0.900626,1.1657 -1.421451,1.7279 -0.454791,0.5124 -1.023857,0.9861 -1.610754,1.4497 -0.41763,0.3665 -0.884116,0.711 -1.367462,1.0487 -0.906233,0.6586 -1.921443,0.8447 -3.333137,1.3147 -0.343498,0.09 -0.711043,0.136 -1.054299,0.227 -0.9598,0.2706 -0.349874,0.1018 2.006049,-0.6728 0.461394,-0.1517 -0.416279,0.1545 -0.508052,0.1939 0,0 -2.615724,0.6 -2.615724,0.6 l 0,0 c 1.051315,-0.4293 2.099684,-0.8515 3.326166,-1.1296 0.352094,-0.074 0.714466,-0.1345 1.045393,-0.2383 -4.054283,1.3743 -2.225832,0.8838 -1.440452,0.3383 0.495762,-0.3367 0.995951,-0.6709 1.405087,-1.0464 0.58532,-0.4605 1.179991,-0.9224 1.630955,-1.4328 0.547194,-0.5507 1.006662,-1.1326 1.438509,-1.7162 0.472066,-0.628 0.999214,-1.2434 1.385559,-1.8919 0.481221,-0.8977 0.845411,-1.8136 1.313537,-2.7135 0.407454,-0.6588 0.714326,-1.3311 0.763532,-2.035 0.114398,-0.9213 0.171602,-1.8468 0.166234,-2.7704 -0.0098,-0.9864 -0.01277,-1.973 -0.08485,-2.9587 -0.07451,-1.0341 -0.158161,-2.0693 -0.336005,-3.0992 -0.302437,-1.3988 -0.717033,-2.7882 -1.116294,-4.1785 -0.134114,-0.4909 -0.334149,-1.2016 -0.445114,-1.6944 -0.214434,-0.9523 -0.355481,-1.9101 -0.551521,-2.8637 -0.246029,-1.2182 -0.493618,-2.443 -0.487568,-3.6709 -0.0132,-0.9752 -0.02133,-1.9511 -0.113452,-2.9251 -0.06532,-0.5631 -0.15453,-1.1248 -0.293912,-1.6833 0,0 2.492391,-0.7625 2.492391,-0.7625 z"
       inkscape:connector-curvature="0" />
    <path
       style="fill:#008000;fill-opacity:1;stroke:#000000;stroke-width:0;stroke-miterlimit:4;stroke-opacity:1;stroke-dasharray:none"
       id="path4137"
       d="m 25.682187,1000.238 c -0.01599,0.5826 -0.01406,1.1655 -0.01394,1.7483 -0.0048,0.4748 0.108682,0.9296 0.241192,1.381 0.127769,0.4437 0.429499,0.7887 0.727866,1.1279 0.382923,0.4513 0.774171,0.8951 1.159541,1.3442 0.42806,0.4549 0.920258,0.8433 1.417409,1.2192 0.724935,0.5653 1.455971,1.1214 2.211031,1.6459 0.671235,0.45 1.288525,0.9739 1.944931,1.4433 0.471076,0.3689 0.953017,0.7167 1.481925,0.9963 0.683025,0.3401 1.370092,0.6609 2.080526,0.9398 0.891648,0.3446 1.776706,0.702 2.606261,1.1796 0.66304,0.3996 1.344445,0.7574 2.046877,1.0818 0.442496,0.1602 0.85546,0.389 1.289962,0.5663 0.284837,0.1645 0.533096,0.3888 0.784661,0.5999 0.253464,0.2321 0.491731,0.4778 0.69765,0.7534 0.239173,0.2821 0.304944,0.6437 0.413849,0.9846 0.132789,0.3348 0.223061,0.681 0.273763,1.037 0.01448,0.1662 0.02198,0.3316 0.04366,0.497 0,0 -1.896817,1.0011 -1.896817,1.0011 l 0,0 c -0.02604,-0.1667 -0.03598,-0.3318 -0.04504,-0.5002 -0.03895,-0.3442 -0.116263,-0.6801 -0.248638,-1.0015 -0.114067,-0.3154 -0.151486,-0.6622 -0.384673,-0.9234 -0.197136,-0.2601 -0.424998,-0.494 -0.666198,-0.7135 -0.24098,-0.1961 -0.479605,-0.4053 -0.757437,-0.5472 -0.420959,-0.1983 -0.835206,-0.4105 -1.266002,-0.5881 -0.700766,-0.3321 -1.377181,-0.7056 -2.042055,-1.1048 -0.826581,-0.4637 -1.700514,-0.8232 -2.586373,-1.1576 -0.720999,-0.287 -1.430098,-0.6 -2.128135,-0.9391 -0.526254,-0.2944 -0.998013,-0.6683 -1.477452,-1.0324 -0.645797,-0.48 -1.268433,-0.9916 -1.933125,-1.4463 -0.751297,-0.533 -1.481672,-1.0933 -2.216049,-1.6492 -0.518579,-0.3771 -1.036197,-0.7676 -1.467018,-1.2458 -0.377861,-0.4528 -0.765011,-0.8975 -1.152707,-1.3419 -0.324184,-0.3593 -0.646987,-0.729 -0.786498,-1.2032 -0.136992,-0.4728 -0.259693,-0.9456 -0.252739,-1.4433 1.23e-4,-0.578 0.0022,-1.1562 -0.01394,-1.734 0,0 1.913722,-0.9751 1.913722,-0.9751 z"
       inkscape:connector-curvature="0" />
    <rect
       style="fill:#ffffff;fill-opacity:1;stroke:#000000;stroke-width:0.76999056;stroke-miterlimit:4;stroke-opacity:1;stroke-dasharray:none"
       id="rect3001-0-6-4"
       width="11.871526"
       height="10.568552"
       x="44.250061"
       y="1035.0562"
       ry="2.8954935" />
  </g>
</svg>
