<?xml version="1.0" encoding="UTF-8" standalone="no"?>
<!-- Created with Inkscape (http://www.inkscape.org/) -->

<svg
   xmlns:dc="http://purl.org/dc/elements/1.1/"
   xmlns:cc="http://creativecommons.org/ns#"
   xmlns:rdf="http://www.w3.org/1999/02/22-rdf-syntax-ns#"
   xmlns:svg="http://www.w3.org/2000/svg"
   xmlns="http://www.w3.org/2000/svg"
   xmlns:sodipodi="http://sodipodi.sourceforge.net/DTD/sodipodi-0.dtd"
   xmlns:inkscape="http://www.inkscape.org/namespaces/inkscape"
   width="82"
   height="70"
   id="svg2"
   version="1.1"
   inkscape:version="0.48.1 "
   sodipodi:docname="window.svg"
   inkscape:export-filename="C:\Users\Work\workspace\Scampi\src\Scampi\gui\ScaiOperators\src\main\webapp\images\operators\window.png"
   inkscape:export-xdpi="90"
   inkscape:export-ydpi="90">
  <defs
     id="defs4" />
  <sodipodi:namedview
     id="base"
     pagecolor="#ffffff"
     bordercolor="#666666"
     borderopacity="1.0"
     inkscape:pageopacity="0.0"
     inkscape:pageshadow="2"
     inkscape:zoom="5.3185439"
     inkscape:cx="-14.107568"
     inkscape:cy="53.561213"
     inkscape:document-units="px"
     inkscape:current-layer="layer1"
     showgrid="false"
     inkscape:window-width="1920"
     inkscape:window-height="1018"
     inkscape:window-x="1358"
     inkscape:window-y="-8"
     inkscape:window-maximized="1" />
  <metadata
     id="metadata7">
    <rdf:RDF>
      <cc:Work
         rdf:about="">
        <dc:format>image/svg+xml</dc:format>
        <dc:type
           rdf:resource="http://purl.org/dc/dcmitype/StillImage" />
        <dc:title />
      </cc:Work>
    </rdf:RDF>
  </metadata>
  <g
     inkscape:label="Ebene 1"
     inkscape:groupmode="layer"
     id="layer1"
     transform="translate(0,-982.36218)">
    <rect
       style="opacity:0.5;fill:#008000;stroke:#000000;stroke-width:0;stroke-miterlimit:4;stroke-opacity:1;stroke-dasharray:none"
       id="rect3828"
       width="35.109024"
       height="18.779247"
       x="20.009092"
       y="987.95734"
       ry="0" />
    <rect
       style="opacity:0.7;fill:#ffffff;fill-opacity:1;stroke:#000000;stroke-width:0.86850655;stroke-miterlimit:4;stroke-opacity:1;stroke-dasharray:none"
       id="rect3001-0"
       width="13.390421"
       height="11.920738"
       x="38.521008"
       y="991.4682"
       ry="3.2659557" />
    <rect
       style="opacity:0.70033671;fill:#ffffff;fill-opacity:1;stroke:#000000;stroke-width:0.86850655;stroke-miterlimit:4;stroke-opacity:1;stroke-dasharray:none"
       id="rect3001"
       width="13.390421"
       height="11.920738"
       x="22.577087"
       y="991.3866"
       ry="3.2659557" />
    <rect
       style="fill:#008000;stroke:#000000;stroke-width:0;stroke-miterlimit:4;stroke-opacity:1;stroke-dasharray:none"
       id="rect3828-3"
       width="35.109024"
       height="18.779247"
       x="20.009092"
       y="1007.9495"
       ry="0" />
    <rect
       style="fill:#ffffff;fill-opacity:1;stroke:#000000;stroke-width:0.86850655;stroke-miterlimit:4;stroke-opacity:1;stroke-dasharray:none"
       id="rect3001-0-4"
       width="13.390421"
       height="11.920738"
       x="38.521008"
       y="1011.4603"
       ry="3.2659557" />
    <rect
       style="fill:#ffffff;fill-opacity:1;stroke:#000000;stroke-width:0.86850655;stroke-miterlimit:4;stroke-opacity:1;stroke-dasharray:none"
       id="rect3001-59"
       width="13.390421"
       height="11.920738"
       x="22.577087"
       y="1011.3787"
       ry="3.2659557" />
    <rect
       style="fill:#008000;stroke:#000000;stroke-width:0;stroke-miterlimit:4;stroke-opacity:1;stroke-dasharray:none"
       id="rect3828-37"
       width="35.109024"
       height="18.779247"
       x="20.009092"
       y="1027.9414"
       ry="0" />
    <rect
       style="fill:#ffffff;fill-opacity:1;stroke:#000000;stroke-width:0.86850655;stroke-miterlimit:4;stroke-opacity:1;stroke-dasharray:none"
       id="rect3001-0-6"
       width="13.390421"
       height="11.920738"
       x="38.521008"
       y="1031.4524"
       ry="3.2659557" />
    <rect
       style="fill:#ffffff;fill-opacity:1;stroke:#000000;stroke-width:0.86850655;stroke-miterlimit:4;stroke-opacity:1;stroke-dasharray:none"
       id="rect3001-8"
       width="13.390421"
       height="11.920738"
       x="22.577087"
       y="1031.3707"
       ry="3.2659557" />
    <path
       style="fill:#000000;fill-opacity:1;stroke:#000000;stroke-width:0;stroke-miterlimit:4;stroke-opacity:1;stroke-dasharray:none"
       id="path4023"
       d="m 56.97102,1006.4069 c 0.454229,0.012 0.9086,0 1.362884,0 0.390674,-0.016 0.767827,0.012 1.143872,0.078 0.431139,0.067 0.852753,0.1542 1.28931,0.2055 0.379446,0.024 0.652863,0.083 0.911535,0.274 0.22428,0.2292 0.330335,0.4935 0.448038,0.7532 0.121009,0.2426 0.140759,0.4983 0.19603,0.7492 0.07816,0.282 0.190595,0.5581 0.251032,0.8425 0.03452,0.3324 0.15961,0.6544 0.248201,0.9809 0.07047,0.4549 0.164049,0.9057 0.312102,1.3524 0.142879,0.3553 0.248065,0.7146 0.295114,1.0814 0.03046,0.3509 0.02868,0.7025 0.03169,1.0539 7.1e-4,0.2877 3.55e-4,0.5753 0.0013,0.863 0.01942,0.3771 -0.05802,0.7492 -0.146995,1.1202 -0.127475,0.4923 -0.159079,0.9919 -0.179979,1.4905 -0.01204,0.399 -0.01096,0.7981 -0.0061,1.1972 0.0033,0.3266 1.72e-4,0.6533 1.02e-4,0.9799 1.21e-4,0.3558 0.0027,0.7115 -0.002,1.0672 -0.0022,0.434 -0.0027,0.8681 -0.0036,1.3022 -0.01169,0.4162 0.07814,0.8288 0.117269,1.2434 0.0395,0.4486 0.04133,0.898 0.04367,1.3472 0.0038,0.4463 0.0051,0.8926 0.0046,1.3389 0.0023,0.3732 0.0037,0.7462 0.0037,1.1194 -2.49e-4,0.3318 5.18e-4,0.6637 0.0027,0.9955 -9.55e-4,0.326 -0.0031,0.6519 -7.63e-4,0.978 0.0042,0.2957 -2.55e-4,0.5913 8.58e-4,0.8869 0.003,0.329 -0.0015,0.658 -0.0069,0.9869 -0.0021,0.5126 -0.0096,1.0251 -0.0068,1.5376 -0.0025,0.571 -0.0027,1.1422 -10e-4,1.7133 0.0047,0.4631 0.0047,0.9264 0.0089,1.3895 0.0051,0.3816 5.8e-4,0.7632 1.46e-4,1.1447 -0.0014,0.4259 -0.0035,0.8518 -1.82e-4,1.2776 0.0042,0.3402 0.0031,0.6802 0.0055,1.0204 0.0085,0.2548 -0.0098,0.5102 0.01669,0.7645 0.05048,0.3142 0.173116,0.6196 0.238787,0.9325 0.03215,0.2888 0.106708,0.5736 0.164661,0.8602 0.05982,0.3381 0.0571,0.6798 0.0655,1.0197 0.0075,0.2972 0.0061,0.5944 0.0074,0.8917 0.01734,0.321 -0.04581,0.6394 -0.09552,0.9579 -0.02753,0.2769 -0.06839,0.5514 -0.131785,0.8256 -0.08102,0.2385 -0.17372,0.4738 -0.222546,0.7168 -0.05458,0.2194 -0.129866,0.4354 -0.167991,0.6568 -0.06568,0.2341 -0.115161,0.471 -0.201235,0.7023 -0.05324,0.208 -0.155126,0.3958 -0.308143,0.5785 -0.705255,0.5873 -1.824715,0.9587 -2.922036,1.087 -0.380939,0.032 -0.76855,0.054 -1.149838,0.018 -0.44499,-0.093 -0.903179,-0.1539 -1.35905,-0.2174 -0.396455,-0.043 -0.823001,-0.124 -1.206185,-0.011 -0.120156,0.043 -0.249864,0.067 -0.380672,0.089 0,0 1.921101,-1.003 1.921101,-1.003 l 0,0 c 0.126963,-0.03 0.252158,-0.063 0.382918,-0.085 0.42407,-0.034 0.841007,0.02 1.256256,0.078 0.451274,0.065 0.901154,0.1333 1.352152,0.197 0.371008,0.012 0.744551,-0.012 1.10838,-0.059 0.13605,-0.024 0.213838,-0.035 0.343114,-0.073 0.05131,-0.016 0.197432,-0.072 0.149124,-0.052 -3.321298,1.3164 -2.443414,0.9559 -1.719297,0.6827 0.195026,-0.1528 0.300589,-0.3295 0.346953,-0.5282 0.0947,-0.224 0.138475,-0.4513 0.217363,-0.6782 0.02895,-0.223 0.08277,-0.4433 0.171284,-0.6594 0.03102,-0.2471 0.106131,-0.4882 0.218838,-0.7243 0.06482,-0.2729 0.123434,-0.5434 0.141822,-0.82 0.0515,-0.3129 0.127801,-0.625 0.102913,-0.9409 0.0023,-0.2978 0.003,-0.5954 0.0032,-0.8931 -0.0027,-0.3335 -0.0066,-0.6678 -0.06052,-0.9997 -0.05237,-0.2872 -0.139397,-0.5711 -0.160316,-0.8606 -0.06066,-0.3149 -0.174161,-0.622 -0.248674,-0.9351 -0.05086,-0.2587 -0.01507,-0.5206 -0.02237,-0.7813 0.0024,-0.3414 0.0014,-0.6828 0.0055,-1.0243 0.0033,-0.4257 0.0013,-0.8515 -1.82e-4,-1.2774 -4.34e-4,-0.3816 -0.0051,-0.7632 1.46e-4,-1.1447 0.004,-0.4653 0.004,-0.9305 0.0089,-1.3958 0.0015,-0.5709 0.0015,-1.1416 -10e-4,-1.7126 0.0027,-0.5108 -0.0047,-1.0218 -0.0068,-1.5327 -0.0054,-0.3275 -0.0098,-0.6548 -0.0068,-0.9822 0.0011,-0.2958 -0.0033,-0.5916 8.55e-4,-0.8875 0.0023,-0.3259 1.96e-4,-0.6518 -7.75e-4,-0.9776 0.0022,-0.3325 0.003,-0.6649 0.0029,-0.9973 2.43e-4,-0.3742 0.002,-0.7485 0.0051,-1.1227 4.11e-4,-0.4467 0.0033,-0.8934 0.0027,-1.3402 -0.0045,-0.4453 -0.01061,-0.8908 -0.04567,-1.3355 -0.04191,-0.418 -0.123817,-0.8353 -0.119398,-1.2546 -9.55e-4,-0.4334 -0.0013,-0.8665 -0.0036,-1.2999 -0.0046,-0.3551 -0.0021,-0.7102 -0.0027,-1.0655 -7.32e-4,-0.3262 -0.0053,-0.6526 -0.0033,-0.9788 0.0044,-0.403 0.0058,-0.8058 0.02341,-1.2086 0.02276,-0.5031 0.04222,-1.0085 0.158028,-1.5067 0.08587,-0.3609 0.175889,-0.7229 0.143912,-1.0903 0.0023,-0.2885 0.0044,-0.5769 0.0066,-0.8654 0.003,-0.3474 0.0052,-0.6952 -0.023,-1.0422 -0.03927,-0.3608 -0.126004,-0.7167 -0.26202,-1.0671 -0.151352,-0.4467 -0.259281,-0.898 -0.328774,-1.3539 -0.08953,-0.3278 -0.227455,-0.6504 -0.260643,-0.9846 -0.05571,-0.2833 -0.162363,-0.5573 -0.255645,-0.8354 -0.06668,-0.2432 -0.05959,-0.4954 -0.17555,-0.7331 -0.103756,-0.2344 -0.196681,-0.4754 -0.401228,-0.681 -0.222733,-0.143 -0.525815,-0.1627 -0.81927,-0.1957 -0.436079,-0.061 -0.863404,-0.1464 -1.29857,-0.2109 -0.367098,-0.048 -0.735253,-0.054 -1.108867,-0.047 -0.457784,0 -0.915649,0 -1.37338,0 0,0 1.962656,-0.965 1.962656,-0.965 z"
       inkscape:connector-curvature="0" />
  </g>
</svg>
