<?xml version="1.0" encoding="UTF-8" standalone="no"?>
<!-- Created with Inkscape (http://www.inkscape.org/) -->

<svg
   xmlns:dc="http://purl.org/dc/elements/1.1/"
   xmlns:cc="http://creativecommons.org/ns#"
   xmlns:rdf="http://www.w3.org/1999/02/22-rdf-syntax-ns#"
   xmlns:svg="http://www.w3.org/2000/svg"
   xmlns="http://www.w3.org/2000/svg"
   xmlns:xlink="http://www.w3.org/1999/xlink"
   xmlns:sodipodi="http://sodipodi.sourceforge.net/DTD/sodipodi-0.dtd"
   xmlns:inkscape="http://www.inkscape.org/namespaces/inkscape"
   width="50"
   height="50"
   id="svg2"
   sodipodi:version="0.32"
   inkscape:version="0.48.1 "
   version="1.0"
   sodipodi:docname="error_icon.svg"
   inkscape:output_extension="org.inkscape.output.svg.inkscape">
  <sodipodi:namedview
     id="base"
     pagecolor="#ffffff"
     bordercolor="#666666"
     borderopacity="1.0"
     gridtolerance="10000"
     guidetolerance="10"
     objecttolerance="10"
     inkscape:pageopacity="0.0"
     inkscape:pageshadow="2"
     inkscape:zoom="1.2975409"
     inkscape:cx="148.71007"
     inkscape:cy="140.7038"
     inkscape:document-units="px"
     inkscape:current-layer="layer1"
     width="400px"
     height="400px"
     showgrid="false"
     inkscape:window-width="1426"
     inkscape:window-height="913"
     inkscape:window-x="1487"
     inkscape:window-y="45"
     inkscape:window-maximized="0" />
  <defs
     id="defs4">
    <inkscape:perspective
       sodipodi:type="inkscape:persp3d"
       inkscape:vp_x="0 : 200 : 1"
       inkscape:vp_y="0 : 1000 : 0"
       inkscape:vp_z="400 : 200 : 1"
       inkscape:persp3d-origin="200 : 133.33333 : 1"
       id="perspective3046" />
    <linearGradient
       id="linearGradient4121">
      <stop
         offset="0"
         style="stop-color: rgb(232, 0, 0); stop-opacity: 1;"
         id="stop4123" />
      <stop
         offset="0.62295079"
         style="stop-color: rgb(239, 101, 101); stop-opacity: 0;"
         id="stop6077" />
      <stop
         offset="1"
         style="stop-color: rgb(246, 202, 202); stop-opacity: 0;"
         id="stop4125" />
    </linearGradient>
    <linearGradient
       id="linearGradient3134">
      <stop
         offset="0"
         style="stop-color: rgb(245, 76, 76); stop-opacity: 1;"
         id="stop3136" />
      <stop
         id="stop3165"
         style="stop-color: rgb(186, 19, 19); stop-opacity: 1;"
         offset="0.5" />
      <stop
         offset="1"
         style="stop-color: rgb(154, 25, 25); stop-opacity: 1;"
         id="stop3138" />
    </linearGradient>
    <linearGradient
       id="linearGradient3140"
       gradientUnits="userSpaceOnUse"
       inkscape:collect="always"
       x1="91.29969"
       x2="244.97258"
       xlink:href="#linearGradient3134"
       y1="4.3178039"
       y2="237.70302" />
    <linearGradient
       id="linearGradient3148"
       gradientUnits="userSpaceOnUse"
       inkscape:collect="always"
       x1="91.29969"
       x2="244.97258"
       xlink:href="#linearGradient3134"
       y1="4.3178039"
       y2="237.70302" />
    <linearGradient
       inkscape:collect="always"
       xlink:href="#linearGradient3134"
       id="linearGradient3154"
       gradientUnits="userSpaceOnUse"
       x1="29.753853"
       y1="-13.269632"
       x2="202.58235"
       y2="183.58783" />
    <linearGradient
       inkscape:collect="always"
       xlink:href="#linearGradient3134"
       id="linearGradient3156"
       gradientUnits="userSpaceOnUse"
       x1="29.753853"
       y1="-13.269632"
       x2="202.58235"
       y2="183.58783" />
    <filter
       inkscape:collect="always"
       id="filter3172"
       color-interpolation-filters="sRGB">
      <feGaussianBlur
         inkscape:collect="always"
         stdDeviation="5.0924795"
         id="feGaussianBlur3174" />
    </filter>
    <linearGradient
       inkscape:collect="always"
       xlink:href="#linearGradient3134"
       id="linearGradient2184"
       gradientUnits="userSpaceOnUse"
       x1="29.753853"
       y1="-13.269632"
       x2="202.58235"
       y2="183.58783"
       gradientTransform="matrix(0.15357133,0,0,0.15357133,11.277671,362.35473)" />
    <inkscape:perspective
       id="perspective4338"
       inkscape:persp3d-origin="0.5 : 0.33333333 : 1"
       inkscape:vp_z="1 : 0.5 : 1"
       inkscape:vp_y="0 : 1000 : 0"
       inkscape:vp_x="0 : 0.5 : 1"
       sodipodi:type="inkscape:persp3d" />
  </defs>
  <metadata
     id="metadata7">
    <rdf:RDF>
      <cc:Work
         rdf:about="">
        <dc:format>image/svg+xml</dc:format>
        <dc:type
           rdf:resource="http://purl.org/dc/dcmitype/StillImage" />
        <dc:title>3D effect warning triangle</dc:title>
        <dc:date>18/9/07</dc:date>
        <dc:creator>
          <cc:Agent>
            <dc:title>Tim O'Ryan</dc:title>
          </cc:Agent>
        </dc:creator>
        <cc:license
           rdf:resource="http://creativecommons.org/licenses/by-sa/2.5/" />
      </cc:Work>
      <cc:License
         rdf:about="http://creativecommons.org/licenses/by-sa/2.5/">
        <cc:permits
           rdf:resource="http://web.resource.org/cc/Reproduction" />
        <cc:permits
           rdf:resource="http://web.resource.org/cc/Distribution" />
        <cc:requires
           rdf:resource="http://web.resource.org/cc/Notice" />
        <cc:requires
           rdf:resource="http://web.resource.org/cc/Attribution" />
        <cc:permits
           rdf:resource="http://web.resource.org/cc/DerivativeWorks" />
        <cc:requires
           rdf:resource="http://web.resource.org/cc/ShareAlike" />
      </cc:License>
    </rdf:RDF>
  </metadata>
  <g
     inkscape:label="Layer 1"
     id="layer1"
     inkscape:groupmode="layer"
     transform="translate(0,-350)">
    <path
       style="fill:#777777;fill-opacity:0.79729698;stroke:none;filter:url(#filter3172)"
       d="m 213.05399,47.37801 c -4.21444,0.21749 -8.0347,2.54657 -10.15847,6.19326 L 33.940149,345.10803 c -2.2394,3.86491 -2.24648,8.63102 -0.01859,12.50258 2.2279,3.87156 6.35223,6.26023 10.81904,6.26604 l 336.928881,0.52869 c 4.46863,0.0134 8.60458,-2.35943 10.84845,-6.22387 2.24387,-3.86443 2.25436,-8.63271 0.0275,-12.50699 L 224.53419,53.60904 c -2.35105,-4.07005 -6.78637,-6.47738 -11.4802,-6.23103 l 0,0 z m 0.60422,37.46171 146.41036,254.5282 L 66.417039,338.91476 213.65821,84.83972 z"
       id="path3152"
       inkscape:connector-curvature="0"
       transform="matrix(0.12708231,0,0,0.12708231,-0.11774802,348.76468)" />
    <path
       style="fill:url(#linearGradient2184);fill-opacity:1;stroke:#870000;stroke-width:0.79426438;stroke-linecap:round;stroke-linejoin:round;stroke-miterlimit:4;stroke-opacity:1;stroke-dasharray:none"
       d="m 25.276683,354.03788 c -0.535581,0.0276 -1.021067,0.32362 -1.290962,0.78706 L 2.5144851,391.8741 c -0.2845881,0.49116 -0.2854887,1.09685 -0.00237,1.58886 0.2831267,0.492 0.8072551,0.79555 1.3749087,0.7963 l 42.8176962,0.0672 c 0.567884,10e-4 1.093493,-0.29984 1.378648,-0.79095 0.285153,-0.4911 0.28649,-1.09706 0.0034,-1.58941 L 26.735484,354.82978 c -0.298776,-0.51724 -0.862426,-0.82316 -1.45893,-0.79186 l 0,0 z m 0.07679,4.76072 18.606165,32.34603 -37.3179108,-0.0576 18.7117458,-32.28844 z"
       id="path2178"
       inkscape:connector-curvature="0" />
    <path
       sodipodi:arg2="1.5723975"
       style="fill:url(#linearGradient3140);fill-opacity:1;fill-rule:nonzero;stroke:url(#linearGradient3148);stroke-width:20.68779945;stroke-linecap:round;stroke-linejoin:round;stroke-miterlimit:4;stroke-opacity:1;stroke-dasharray:none"
       id="path2160"
       sodipodi:cx="91.428574"
       sodipodi:cy="117.14286"
       sodipodi:arg1="0.52519998"
       sodipodi:type="star"
       d="M 230.71429,197.85715 -48.114905,197.41068 91.686339,-43.839248 z"
       sodipodi:r2="80.491158"
       sodipodi:sides="3"
       inkscape:randomized="0"
       transform="matrix(0.15357134,0,0,0.15357134,11.27767,362.35473)"
       inkscape:rounded="0"
       sodipodi:r1="160.98232"
       inkscape:flatsided="true" />
    <path
       style="font-size:333.22601318px;font-style:normal;font-variant:normal;font-weight:bold;font-stretch:normal;text-align:start;line-height:125%;text-anchor:start;fill:#ffffff;fill-opacity:1;stroke:none;font-family:Angsana New"
       d="m 25.767275,381.35377 -0.677778,0 c -0.07012,-1.20157 -0.303834,-2.6403 -0.701145,-4.3162 l -0.806319,-3.41501 c -0.483014,-2.04742 -0.724519,-3.51381 -0.724518,-4.3992 -1e-6,-1.78654 0.853059,-2.67982 2.559185,-2.67984 0.747883,2e-5 1.365282,0.24706 1.852195,0.7411 0.4869,0.49409 0.730355,1.12453 0.730361,1.8913 -6e-6,0.81424 -0.257093,2.29646 -0.771262,4.44664 l -0.818003,3.41501 c -0.288255,1.20159 -0.502494,2.64032 -0.642716,4.3162 l 0,0 z m -0.315516,2.24111 c 0.794625,0 1.410074,0.27075 1.846352,0.81225 0.43626,0.5415 0.654394,1.12055 0.654402,1.73715 -8e-6,0.81423 -0.264886,1.4407 -0.794632,1.87944 -0.529761,0.43873 -1.09847,0.6581 -1.706122,0.6581 -0.802429,0 -1.419826,-0.26878 -1.852198,-0.80632 -0.432375,-0.53754 -0.648561,-1.11462 -0.648559,-1.73122 -2e-6,-0.71937 0.239556,-1.32411 0.718675,-1.81422 0.479114,-0.49013 1.073138,-0.73518 1.782082,-0.73518 l 0,0 z"
       id="text2171"
       inkscape:connector-curvature="0" />
  </g>
</svg>
